<svg version="1.1" id="Layer_1" xmlns="http://www.w3.org/2000/svg" xmlns:xlink="http://www.w3.org/1999/xlink" x="0px" y="0px"
	 width="100%" viewBox="0 0 1164 1068" enable-background="new 0 0 1164 1068" xml:space="preserve">
<path fill="#FFFFFF" opacity="1.000000" stroke="none" 
	d="
M1163.000000,1069.000000 
	C775.737549,1069.000000 388.475037,1069.000000 1.000000,1069.000000 
	C1.000000,714.302429 1.000000,359.604858 1.468624,4.460047 
	C88.331749,4.014256 174.726273,4.000870 261.120667,4.099229 
	C263.369080,4.101789 265.616150,5.324724 267.893311,6.355441 
	C267.794495,7.472917 267.666138,8.213481 267.260681,9.037722 
	C266.956543,10.067325 266.929504,11.013252 266.929871,12.338422 
	C266.836945,13.464798 266.716614,14.211931 266.311584,15.037991 
	C265.999023,16.068029 265.971191,17.019142 265.966492,18.374008 
	C265.820404,19.835644 265.651093,20.893522 265.212158,22.039986 
	C264.918213,23.069046 264.893890,24.009527 264.898132,25.330513 
	C264.800049,26.459505 264.673370,27.207989 264.268372,28.038898 
	C263.962158,29.067703 263.934296,30.014084 263.933533,31.339539 
	C263.843201,32.465816 263.725769,33.213028 263.322266,34.037735 
	C263.005768,35.067192 262.975372,36.019157 262.967834,37.374569 
	C262.821930,38.835129 262.653229,39.892242 262.214233,41.038139 
	C261.921204,42.068562 261.898376,43.010204 261.901794,44.332092 
	C261.801758,45.460171 261.675476,46.208000 261.270691,47.038231 
	C260.962860,48.066902 260.933472,49.013172 260.932220,50.338676 
	C260.843994,51.465950 260.727661,52.213989 260.311829,53.052719 
	C259.956360,54.409668 259.900330,55.675922 259.872620,57.323978 
	C259.766968,58.454170 259.632996,59.202564 259.227356,60.037994 
	C258.927094,61.066746 258.898529,62.008461 258.899231,63.330639 
	C258.803101,64.459183 258.677704,65.207268 258.273254,66.038208 
	C257.967804,67.068192 257.941406,68.015335 257.940552,69.367889 
	C257.784119,70.831467 257.602051,71.889610 257.159180,73.042343 
	C256.879974,74.072350 256.861572,75.007774 256.872833,76.324623 
	C256.768890,77.454163 256.635284,78.202271 256.229706,79.037422 
	C255.928772,80.066658 255.899826,81.008835 255.900787,82.331345 
	C255.805878,83.459602 255.681046,84.207535 255.276672,85.037842 
	C254.970139,86.067757 254.943130,87.015289 254.942795,88.341782 
	C254.854782,89.468513 254.740097,90.216270 254.324554,91.053421 
	C253.964630,92.409317 253.905579,93.675819 253.875946,95.323944 
	C253.772385,96.454323 253.639389,97.203087 253.233429,98.038223 
	C252.933746,99.067459 252.907043,100.010315 252.909668,101.333252 
	C252.814163,102.461250 252.689362,103.209160 252.283722,104.038429 
	C251.977386,105.068092 251.951889,106.016396 251.951248,107.343636 
	C251.859528,108.469948 251.742950,109.217323 251.325439,110.053802 
	C250.964691,111.409340 250.904892,112.675774 250.875732,114.323807 
	C250.776230,115.454727 250.646103,116.204048 250.241760,117.038574 
	C249.940125,118.067360 249.912689,119.010948 249.913910,120.334579 
	C249.818756,121.462204 249.694946,122.209801 249.289795,123.038589 
	C248.981369,124.068451 248.954285,125.017105 248.952637,126.344345 
	C248.862305,127.469833 248.746552,128.216751 248.329010,129.052979 
	C247.971161,130.410065 247.915100,131.677811 247.886566,133.326767 
	C247.783844,134.456497 247.653595,135.205017 247.248306,136.038025 
	C246.944351,137.066498 246.915421,138.010513 246.914871,139.334442 
	C246.821365,140.462357 246.699493,141.210342 246.295471,142.038879 
	C245.985504,143.068527 245.957703,144.017654 245.954239,145.371307 
	C245.802917,146.833527 245.627243,147.891190 245.186203,149.040771 
	C244.900482,150.070969 244.880127,151.009293 244.886688,152.328522 
	C244.784622,153.457520 244.655609,154.205597 244.251083,155.037964 
	C243.946808,156.066483 243.918076,157.010757 243.918732,158.334839 
	C243.825607,159.462357 243.703110,160.210052 243.298065,161.038025 
	C242.986847,162.068069 242.958160,163.017853 242.952087,164.371887 
	C242.803696,165.833847 242.632690,166.891510 242.195221,168.040802 
	C241.906967,169.071198 241.885178,170.009964 241.889618,171.329483 
	C241.787460,172.458069 241.659042,173.205917 241.254669,174.037384 
	C240.947830,175.065598 240.916931,176.010223 240.916748,177.334534 
	C240.829132,178.462433 240.710800,179.210648 240.308136,180.037888 
	C239.996445,181.067978 239.969070,182.019043 239.963806,183.374054 
	C239.812820,184.835266 239.639725,185.892517 239.199158,187.040237 
	C238.909912,188.070358 238.888107,189.009995 238.892105,190.330261 
	C238.791443,191.458862 238.664963,192.206833 238.261398,193.038071 
	C237.955826,194.066971 237.927322,195.012634 237.926437,196.337555 
	C237.834808,197.464233 237.715546,198.211639 237.311615,199.037949 
	C236.998779,200.068130 236.970627,201.019394 236.965271,202.374527 
	C236.815689,203.835556 236.643280,204.892731 236.202774,206.039993 
	C235.912460,207.069763 235.890259,208.009445 235.897522,209.329712 
	C235.798691,210.458740 235.670410,211.207169 235.264313,212.038635 
	C234.960022,213.067795 234.933548,214.013901 234.933380,215.339050 
	C234.841232,216.465179 234.722763,217.212280 234.318634,218.037476 
	C234.003616,219.067413 233.974258,220.019257 233.967255,221.374634 
	C233.821762,222.835709 233.653900,223.893250 233.215851,225.039093 
	C232.920303,226.068283 232.894943,227.009155 232.898163,228.330536 
	C232.800079,229.459503 232.673416,230.207977 232.268585,231.038788 
	C231.960892,232.067108 231.931366,233.013077 231.931183,234.338226 
	C231.842682,235.465134 231.724854,236.212845 231.307938,237.052124 
	C230.954620,238.410065 230.900375,239.676453 230.873718,241.324829 
	C230.764511,242.454834 230.627686,243.202850 230.220062,244.039093 
	C229.924789,245.068741 229.900330,246.010147 229.903549,247.332001 
	C229.805344,248.460526 229.679459,249.208618 229.274994,250.038788 
	C228.964203,251.066864 228.932007,252.012894 228.928711,253.364594 
	C228.776642,254.829239 228.595673,255.888214 228.154495,257.042603 
	C227.878387,258.073486 227.862488,259.008972 227.874603,260.325989 
	C227.768082,261.455383 227.633545,262.203247 227.227203,263.038208 
	C226.928162,264.067108 226.900925,265.008911 226.902298,266.331085 
	C226.804520,267.459229 226.678131,268.206940 226.272797,269.037628 
	C225.967239,270.067871 225.940643,271.015137 225.940689,272.341431 
	C225.852295,273.468048 225.737259,274.215668 225.321777,275.053009 
	C224.962204,276.409027 224.903046,277.675323 224.873535,279.323212 
	C224.772324,280.453857 224.641434,281.202942 224.237427,282.037781 
	C223.933929,283.066284 223.903580,284.008972 223.903015,285.331909 
	C223.808853,286.460205 223.684906,287.208282 223.280441,288.038330 
	C222.976120,289.068726 222.952301,290.017120 222.952972,291.344299 
	C222.860062,292.470093 222.742691,293.217072 222.324478,294.053467 
	C221.964600,295.409332 221.905579,296.675781 221.876007,298.323944 
	C221.772934,299.454620 221.640411,300.203613 221.234222,301.038391 
	C220.936401,302.067932 220.912231,303.011597 220.914185,304.335175 
	C220.817459,305.462494 220.694611,306.209930 220.290436,307.038452 
	C219.981110,308.068176 219.953110,309.016785 219.950424,310.344116 
	C219.860229,311.469940 219.744720,312.217072 219.327682,313.053314 
	C218.968643,314.409607 218.911133,315.676788 218.883942,317.325378 
	C218.781509,318.455627 218.648758,319.204468 218.241730,320.038391 
	C217.940445,321.067169 217.913437,322.010803 217.914749,323.334412 
	C217.818573,324.461823 217.694077,325.209259 217.288391,326.038361 
	C216.980713,327.068817 216.954239,328.017609 216.951752,329.371063 
	C216.801620,330.833862 216.627487,331.891998 216.187927,333.041290 
	C215.899902,334.070160 215.877319,335.007904 215.883514,336.326782 
	C215.785294,337.456757 215.658310,338.205627 215.255325,339.038025 
	C214.948730,340.065918 214.918106,341.010284 214.916809,342.334534 
	C214.824280,343.462189 214.702438,344.209991 214.298187,345.037994 
	C213.986099,346.067627 213.956436,347.017029 213.951706,348.370850 
	C213.805527,349.833618 213.634399,350.892059 213.196381,352.040894 
	C212.906357,353.070160 212.883255,354.009003 212.886887,355.328613 
	C212.784378,356.457245 212.655136,357.205078 212.250458,358.037262 
	C211.945709,359.066254 211.916428,360.010925 211.917572,361.335144 
	C211.827835,362.462494 211.707657,363.210236 211.304077,364.037598 
	C210.991364,365.067413 210.962051,366.017670 210.957458,367.371979 
	C210.810654,368.834229 210.639130,369.892395 210.200165,371.040619 
	C209.909073,372.069733 209.885437,373.008820 209.889664,374.328613 
	C209.788361,375.457275 209.659180,376.205170 209.253525,377.037354 
	C208.951721,378.067444 208.926407,379.013275 208.926788,380.364929 
	C208.767349,381.828766 208.582184,382.886810 208.164902,384.021637 
	C207.935608,384.722626 207.938446,385.346832 207.963257,386.374878 
	C207.814041,387.835999 207.642822,388.893280 207.203491,390.040314 
	C206.912125,391.069641 206.888901,392.009216 206.894287,393.329224 
	C206.797363,394.458344 206.671814,395.207001 206.268173,396.038086 
	C205.960876,397.066742 205.931671,398.012909 205.929749,399.338318 
	C205.838699,400.464996 205.720383,401.212494 205.316772,402.038147 
	C205.002106,403.067627 204.972748,404.018951 204.966553,405.373993 
	C204.820175,406.835358 204.650650,407.893036 204.211578,409.039520 
	C203.917877,410.068909 203.893723,411.009460 203.898163,412.330505 
	C203.800095,413.459534 203.673416,414.208038 203.268417,415.038940 
	C202.962204,416.067719 202.934311,417.014069 202.933533,418.339539 
	C202.843201,419.465820 202.725754,420.213043 202.322220,421.037750 
	C202.005707,422.067200 201.975266,423.019165 201.967255,424.374695 
	C201.821884,425.835541 201.654099,426.892822 201.215805,428.038330 
	C200.921524,429.068146 200.897720,430.009705 200.902237,431.331665 
	C200.803375,432.459961 200.676208,433.207825 200.270584,434.038208 
	C199.962784,435.066895 199.933426,436.013153 199.932220,437.338623 
	C199.843994,438.465912 199.727646,439.213989 199.311829,440.052734 
	C198.956238,441.409729 198.900116,442.676086 198.872284,444.324188 
	C198.766724,445.454315 198.632874,446.202698 198.227341,447.038025 
	C197.927109,448.066711 197.898529,449.008392 197.899200,450.330566 
	C197.803055,451.459137 197.677673,452.207245 197.273254,453.038208 
	C196.967773,454.068237 196.941360,455.015381 196.940536,456.367920 
	C196.784088,457.831451 196.602051,458.889557 196.159164,460.042358 
	C195.880432,461.072479 195.862564,462.007965 195.874466,463.324860 
	C195.770050,464.454315 195.635880,465.202332 195.229706,466.037415 
	C194.928757,467.066681 194.899826,468.008911 194.900787,469.331421 
	C194.805878,470.459625 194.681046,471.207520 194.276688,472.037842 
	C193.970154,473.067780 193.943130,474.015320 193.942780,475.341827 
	C193.854767,476.468536 193.740097,477.216278 193.324524,478.053406 
	C192.964600,479.409271 192.905563,480.675751 192.875946,482.323853 
	C192.772369,483.454193 192.639389,484.202972 192.233429,485.038147 
	C191.933762,486.067444 191.907059,487.010315 191.909637,488.333282 
	C191.814133,489.461304 191.689331,490.209229 191.283691,491.038483 
	C190.977371,492.068115 190.951889,493.016449 190.951263,494.343628 
	C190.859375,495.469696 190.742645,496.216919 190.325043,497.053406 
	C189.964478,498.409210 189.904785,499.675690 189.875732,501.323792 
	C189.776245,502.454712 189.646118,503.204041 189.241776,504.038574 
	C188.940125,505.067383 188.912689,506.010956 188.913910,507.334564 
	C188.818771,508.462189 188.694962,509.209747 188.289764,510.038574 
	C187.981506,511.068573 187.954620,512.017334 187.952774,513.344604 
	C187.862411,514.469910 187.747025,515.216797 187.329773,516.052856 
	C186.971619,517.409851 186.915329,518.677673 186.886566,520.326660 
	C186.783859,521.456482 186.653610,522.205078 186.248215,523.038208 
	C185.944931,524.066772 185.916779,525.010803 185.916199,526.334717 
	C185.821732,527.462524 185.699692,528.210327 185.295578,529.038757 
	C184.985138,530.068542 184.956787,531.017700 184.952789,532.371765 
	C184.802017,533.835205 184.626862,534.893799 184.170197,536.062134 
	C183.879196,537.429993 183.869736,538.688171 183.887054,540.327393 
	C183.784760,541.456909 183.655685,542.205322 183.251083,543.037964 
	C182.946808,544.066467 182.918076,545.010742 182.918732,546.334839 
	C182.825607,547.462463 182.703094,548.210144 182.298035,549.038086 
	C181.986816,550.068176 181.958145,551.017944 181.952087,552.371948 
	C181.805359,553.834045 181.636002,554.892029 181.199646,556.040588 
	C180.908463,557.070068 180.884277,558.008911 180.887543,559.328552 
	C180.786850,560.457520 180.658722,561.205627 180.254654,562.037354 
	C179.947830,563.065613 179.916946,564.010254 179.916779,565.334595 
	C179.829163,566.462402 179.710831,567.210632 179.308136,568.037842 
	C178.996429,569.067871 178.969070,570.018982 178.963806,571.374023 
	C178.812820,572.835266 178.639709,573.892517 178.199402,575.040161 
	C177.908066,576.069519 177.883926,577.008667 177.888504,578.328430 
	C177.790955,579.457703 177.664703,580.206299 177.261353,581.038086 
	C176.955780,582.067078 176.927292,583.012878 176.926422,584.337830 
	C176.834793,585.464355 176.715530,586.211731 176.311615,587.037964 
	C175.998779,588.068115 175.970627,589.019348 175.965271,590.374390 
	C175.817719,591.835693 175.647339,592.893127 175.208008,594.039795 
	C174.915375,595.069092 174.891708,596.009216 174.897507,597.329834 
	C174.798691,598.458801 174.670410,599.207214 174.264313,600.038635 
	C173.959885,601.067932 173.933289,602.014099 173.932983,603.339294 
	C173.840942,604.465332 173.722610,605.212341 173.318634,606.037476 
	C173.003632,607.067444 172.974274,608.019287 172.967255,609.374634 
	C172.821747,610.835754 172.653885,611.893250 172.215820,613.039062 
	C171.920273,614.068176 171.894928,615.009033 171.898178,616.330322 
	C171.800095,617.459412 171.673416,618.207947 171.268585,619.038818 
	C170.960938,620.067200 170.931458,621.013184 170.931091,622.338379 
	C170.844498,623.465515 170.728775,624.213501 170.313339,625.052246 
	C169.957779,626.409546 169.901962,627.676208 169.873718,629.324829 
	C169.764511,630.454956 169.627686,631.202942 169.220093,632.039124 
	C168.924286,633.068542 168.899246,634.009827 168.902542,635.331421 
	C168.804916,636.459900 168.678970,637.207947 168.274445,638.038208 
	C167.963852,639.066467 167.931839,640.012695 167.928711,641.364502 
	C167.776657,642.829041 167.595703,643.888000 167.154510,645.042419 
	C166.878372,646.073425 166.862488,647.008911 166.874588,648.326050 
	C166.768066,649.455383 166.633545,650.203186 166.227234,651.038208 
	C165.928192,652.067139 165.900940,653.008911 165.903076,654.331055 
	C165.805328,655.458984 165.678192,656.206482 165.272217,657.037231 
	C164.966919,658.067810 164.940491,659.015198 164.940689,660.341492 
	C164.852295,661.468018 164.737274,662.215515 164.321823,663.052917 
	C163.962219,664.409058 163.903046,665.675354 163.873535,667.323120 
	C163.772324,668.453735 163.641449,669.202820 163.237457,670.037720 
	C162.933960,671.066284 162.903595,672.008972 162.903015,673.332031 
	C162.808853,674.460388 162.684906,675.208435 162.280426,676.038513 
	C161.976089,677.068787 161.952286,678.017151 161.952957,679.344360 
	C161.860062,680.470154 161.742691,681.217163 161.324432,682.053589 
	C160.965057,683.409607 160.906570,684.676147 160.877655,686.324341 
	C160.774109,687.454834 160.641006,688.203613 160.234283,689.038330 
	C159.936310,690.067932 159.911987,691.011719 159.913925,692.335327 
	C159.817368,693.462585 159.694550,694.210022 159.290390,695.038452 
	C158.981064,696.068115 158.953094,697.016724 158.950439,698.344055 
	C158.860245,699.469910 158.744736,700.217102 158.327698,701.053345 
	C157.968643,702.409668 157.911148,703.676758 157.883942,705.325317 
	C157.781494,706.455627 157.648743,707.204529 157.241714,708.038452 
	C156.940445,709.067200 156.913437,710.010864 156.914749,711.334473 
	C156.818558,712.461853 156.694046,713.209290 156.288300,714.038391 
	C155.981323,715.068970 155.955612,716.017822 155.953827,717.371338 
	C155.802948,718.834045 155.628128,719.892212 155.187759,721.041443 
	C154.900497,722.070496 154.878799,723.008423 154.884888,724.327271 
	C154.785324,725.456726 154.657974,726.205200 154.254745,727.037537 
	C153.948410,728.065796 153.917953,729.010315 153.916809,730.334656 
	C153.824295,731.462280 153.702454,732.210083 153.298218,733.037964 
	C152.986130,734.067566 152.956451,735.016968 152.951706,736.370728 
	C152.805511,737.833557 152.634399,738.891968 152.196426,740.040894 
	C151.906403,741.070190 151.883270,742.008972 151.886871,743.328613 
	C151.784363,744.457214 151.655136,745.205078 151.250366,746.037354 
	C150.946320,747.066467 150.917801,748.011169 150.918930,749.335449 
	C150.828217,750.462708 150.707840,751.210327 150.304108,752.037598 
	C149.991394,753.067444 149.962067,754.017578 149.957458,755.371826 
	C149.810654,756.834167 149.639114,757.892395 149.200165,759.040588 
	C148.908508,760.069763 148.884262,761.008911 148.888672,762.328735 
	C148.788223,763.457275 148.659119,764.205200 148.253540,765.037354 
	C147.951736,766.067444 147.926422,767.013184 147.926819,768.364868 
	C147.767380,769.828674 147.582230,770.886719 147.164963,772.021606 
	C146.935669,772.722656 146.938477,773.346802 146.963272,774.374878 
	C146.814041,775.835938 146.642822,776.893250 146.203522,778.040283 
	C145.912155,779.069641 145.888901,780.009216 145.893921,781.329224 
	C145.796890,782.458374 145.671585,783.207031 145.268188,784.038086 
	C144.960892,785.066833 144.931671,786.013123 144.929718,787.338623 
	C144.838684,788.465271 144.720383,789.212646 144.316742,790.038208 
	C144.002075,791.067627 143.972733,792.018860 143.966522,793.373901 
	C143.820145,794.835327 143.650620,795.893005 143.211548,797.039551 
	C142.917862,798.068909 142.893723,799.009338 142.898193,800.330322 
	C142.800110,801.459412 142.673431,802.207947 142.268402,803.038879 
	C141.962173,804.067688 141.934296,805.014160 141.933533,806.339600 
	C141.843201,807.465820 141.725739,808.213013 141.322235,809.037720 
	C141.005722,810.067200 140.975281,811.019104 140.967285,812.374634 
	C140.821930,813.835449 140.654129,814.892761 140.215820,816.038269 
	C139.921524,817.068115 139.897720,818.009705 139.902237,819.331787 
	C139.803360,820.460144 139.676178,821.208008 139.270523,822.038330 
	C138.962738,823.066956 138.933411,824.013184 138.932220,825.338623 
	C138.844009,826.465881 138.727661,827.213928 138.311859,828.052612 
	C137.956284,829.409607 137.900146,830.675903 137.872330,832.323975 
	C137.766769,833.454163 137.632904,834.202515 137.227386,835.037964 
	C136.927139,836.066772 136.898544,837.008545 136.899185,838.330688 
	C136.803055,839.459229 136.677673,840.207336 136.273224,841.038208 
	C135.967834,842.068237 135.941498,843.015442 135.941559,844.341614 
	C135.851990,845.468140 135.736038,846.215637 135.319824,847.053101 
	C134.961411,848.409485 134.903259,849.675781 134.874741,851.323730 
	C134.770126,852.453735 134.635880,853.202148 134.229645,854.037476 
	C133.928711,855.066650 133.899811,856.008850 133.900787,857.331421 
	C133.805862,858.459656 133.681046,859.207520 133.276672,860.037842 
	C132.970139,861.067810 132.943130,862.015381 132.942780,863.341919 
	C132.854782,864.468628 132.740112,865.216309 132.324554,866.053467 
	C131.964630,867.409363 131.905579,868.675842 131.876007,870.323975 
	C131.772980,871.454529 131.640472,872.203430 131.234589,873.038086 
	C130.934280,874.066956 130.907364,875.010132 130.910400,876.333374 
	C130.815079,877.461304 130.689819,878.209167 130.283722,879.038391 
	C129.977386,880.068054 129.951904,881.016418 129.951294,882.343506 
	C129.859070,883.469360 129.741959,884.216309 129.324097,885.052979 
	C128.963928,886.409180 128.904495,887.675720 128.875732,889.323853 
	C128.776245,890.454773 128.646118,891.204041 128.241745,892.038513 
	C127.940102,893.067261 127.912689,894.010925 127.913940,895.334595 
	C127.818779,896.462219 127.694969,897.209778 127.289841,898.038574 
	C126.981041,899.068298 126.953545,900.016907 126.952301,901.344116 
	C126.861908,902.469666 126.745255,903.216553 126.327072,904.053101 
	C125.970039,905.410278 125.914543,906.677917 125.886581,908.326782 
	C125.783859,909.456604 125.653603,910.205139 125.248222,911.038208 
	C124.944939,912.066772 124.916771,913.010803 124.916199,914.334717 
	C124.821739,915.462524 124.699692,916.210327 124.295593,917.038757 
	C123.985008,918.068604 123.956490,919.017944 123.952530,920.371704 
	C123.801926,921.833740 123.626778,922.891235 123.186249,924.040710 
	C122.900490,925.070984 122.880112,926.009277 122.886650,927.328613 
	C122.783485,928.457703 122.653404,929.205688 122.248154,930.038330 
	C121.945107,931.066895 121.917221,932.010986 121.918716,933.334839 
	C121.825584,934.462463 121.703072,935.210144 121.297775,936.038330 
	C120.988525,937.068787 120.962059,938.018799 120.958023,939.372986 
	C120.809204,940.834717 120.637947,941.892334 120.199692,943.040588 
	C119.908501,944.070068 119.884308,945.008911 119.887558,946.328552 
	C119.786880,947.457520 119.658760,948.205627 119.254677,949.037354 
	C118.947823,950.065613 118.916924,951.010315 118.916748,952.334595 
	C118.829147,953.462402 118.710823,954.210632 118.308296,955.037720 
	C117.995552,956.067505 117.967003,957.018311 117.962112,958.371704 
	C117.849243,959.836060 117.712700,960.897827 117.278854,962.056152 
	C116.953217,963.420349 116.924889,964.688171 116.926262,966.421631 
	C116.927078,970.942688 116.898193,974.997925 116.625580,979.287964 
	C116.773003,981.028809 117.164162,982.534790 117.662407,984.432129 
	C117.790543,985.902344 117.811584,986.981262 117.640282,988.207275 
	C117.762131,988.921997 118.076317,989.489807 118.548645,990.405029 
	C118.794518,991.508545 118.882240,992.264587 118.754974,993.165649 
	C118.885406,993.888489 119.230843,994.466248 119.693840,995.363953 
	C119.848907,996.134338 119.886414,996.584900 119.683899,997.257996 
	C120.854767,1000.998108 122.265656,1004.515686 123.883530,1008.330322 
	C131.018631,1024.404175 141.536652,1037.312256 155.542999,1047.275635 
	C172.283051,1059.183838 191.210403,1063.841309 211.560837,1063.839478 
	C528.611694,1063.810547 845.662537,1063.821167 1163.099609,1063.917725 
	C1163.990479,1064.008667 1164.495239,1064.004395 1165.000000,1064.000000 
	C1165.000000,1064.750000 1165.000000,1065.500000 1164.650391,1066.512451 
	C1163.867188,1067.516479 1163.433594,1068.258301 1163.000000,1069.000000 
z"/>
<path fill="#F2EEE5" opacity="1.000000" stroke="none" 
	d="
M1165.000000,1063.531372 
	C1164.495239,1064.004395 1163.990479,1064.008667 1163.175781,1063.468506 
	C1162.901123,1061.425903 1162.967651,1059.927490 1162.967651,1058.429199 
	C1162.972168,708.835815 1162.972046,359.242401 1162.972046,9.648997 
	C1162.972046,7.883641 1162.972046,6.118284 1162.972046,3.969009 
	C1159.973145,3.969009 1157.668091,3.969009 1155.363037,3.969009 
	C862.257751,3.969009 569.152527,3.969002 276.047241,3.969188 
	C274.547577,3.969189 272.986267,3.712325 271.566254,4.049366 
	C270.253448,4.360964 269.091949,5.310139 267.863831,5.978527 
	C265.616150,5.324724 263.369080,4.101789 261.120667,4.099229 
	C174.726273,4.000870 88.331749,4.014256 1.468624,4.006414 
	C1.000000,3.000196 1.000000,2.000392 1.000000,1.000441 
	C388.923828,1.000294 776.847656,1.000294 1165.000000,1.000294 
	C1165.000000,355.020874 1165.000000,709.041809 1165.000000,1063.531372 
z"/>
<path fill="#F2EEE5" opacity="1.000000" stroke="none" 
	d="
M1163.500000,1069.000000 
	C1163.433594,1068.258301 1163.867188,1067.516479 1164.650391,1066.887451 
	C1164.666626,1067.666626 1164.333374,1068.333374 1163.500000,1069.000000 
z"/>
<path fill="#FFD140" opacity="1.000000" stroke="none" 
	d="
M267.893311,6.355438 
	C269.091949,5.310139 270.253448,4.360964 271.566254,4.049366 
	C272.986267,3.712325 274.547577,3.969189 276.047241,3.969188 
	C569.152527,3.969002 862.257751,3.969009 1155.363037,3.969009 
	C1157.668091,3.969009 1159.973145,3.969009 1162.972046,3.969009 
	C1162.972046,6.118284 1162.972046,7.883641 1162.972046,9.648997 
	C1162.972046,359.242401 1162.972168,708.835815 1162.967651,1058.429199 
	C1162.967651,1059.927490 1162.901123,1061.425903 1162.789551,1063.373413 
	C845.662537,1063.821167 528.611694,1063.810547 211.560837,1063.839478 
	C191.210403,1063.841309 172.283051,1059.183838 155.542999,1047.275635 
	C141.536652,1037.312256 131.018631,1024.404175 123.887894,1007.961670 
	C122.431496,1003.875732 121.177711,1000.455566 119.923920,997.035400 
	C119.886414,996.584900 119.848907,996.134338 119.768356,995.084290 
	C119.473526,993.996704 119.221741,993.508728 118.969955,993.020691 
	C118.882240,992.264587 118.794518,991.508545 118.648956,990.134644 
	C118.338303,989.031372 118.085464,988.545776 117.832626,988.060242 
	C117.811584,986.981262 117.790543,985.902344 117.758636,984.061646 
	C117.454956,981.884399 117.162132,980.468811 116.869308,979.053223 
	C116.898193,974.997925 116.927078,970.942688 117.161003,966.161499 
	C117.436089,964.276978 117.506126,963.118286 117.576157,961.959656 
	C117.712700,960.897827 117.849243,959.836060 118.192215,958.140259 
	C118.463249,956.657104 118.527863,955.807983 118.592484,954.958801 
	C118.710823,954.210632 118.829147,953.462402 119.147766,952.103699 
	C119.408905,950.646729 119.469765,949.800232 119.530632,948.953796 
	C119.658760,948.205627 119.786880,947.457520 120.116341,946.095581 
	C120.367348,944.637878 120.417015,943.793945 120.466682,942.949951 
	C120.637947,941.892334 120.809204,940.834717 121.187622,939.140747 
	C121.456718,937.655579 121.518654,936.806702 121.580574,935.957886 
	C121.703072,935.210144 121.825584,934.462463 122.148994,933.103394 
	C122.407700,931.645935 122.465508,930.799866 122.523315,929.953735 
	C122.653404,929.205688 122.783485,928.457703 123.114395,927.094604 
	C123.360687,925.635925 123.406151,924.792358 123.451614,923.948792 
	C123.626778,922.891235 123.801926,921.833740 124.182716,920.139893 
	C124.451462,918.655151 124.514557,917.806641 124.577652,916.958191 
	C124.699692,916.210327 124.821739,915.462524 125.146423,914.103394 
	C125.407158,912.645935 125.465248,911.799866 125.523338,910.953735 
	C125.653603,910.205139 125.783859,909.456604 126.121544,908.067932 
	C126.428848,906.273071 126.528732,905.118225 126.628601,903.963440 
	C126.745255,903.216553 126.861908,902.469666 127.181717,901.112061 
	C127.446968,899.653381 127.509056,898.805359 127.571144,897.957397 
	C127.694969,897.209778 127.818779,896.462219 128.142212,895.101562 
	C128.399872,893.643433 128.457932,892.798401 128.515991,891.953369 
	C128.646118,891.204041 128.776245,890.454773 129.113037,889.066650 
	C129.421417,887.273071 129.523148,886.118164 129.624847,884.963318 
	C129.741959,884.216309 129.859070,883.469360 130.180603,882.111511 
	C130.444870,880.652771 130.504715,879.804932 130.564545,878.957031 
	C130.689819,878.209167 130.815079,877.461304 131.139709,876.100952 
	C131.395370,874.643066 131.451660,873.797668 131.507965,872.952332 
	C131.640472,872.203430 131.772980,871.454529 132.112396,870.066528 
	C132.421326,868.273010 132.523376,867.118530 132.625427,865.964050 
	C132.740112,865.216309 132.854782,864.468628 133.174667,863.111511 
	C133.438644,861.653259 133.497421,860.804321 133.556213,859.955444 
	C133.681046,859.207520 133.805862,858.459656 134.131287,857.099609 
	C134.388458,855.641907 134.445053,854.796204 134.501648,853.950562 
	C134.635880,853.202148 134.770126,852.453735 135.110107,851.065430 
	C135.417252,849.271423 135.518677,848.117310 135.620087,846.963135 
	C135.736038,846.215637 135.851990,845.468140 136.172241,844.110229 
	C136.435120,842.651733 136.493713,841.803528 136.552307,840.955383 
	C136.677673,840.207336 136.803055,839.459229 137.128235,838.098267 
	C137.385040,836.640564 137.442047,835.795776 137.499054,834.950928 
	C137.632904,834.202515 137.766769,833.454163 138.105621,832.063721 
	C138.410843,830.268372 138.511078,829.115173 138.611313,827.961914 
	C138.727661,827.213928 138.844009,826.465881 139.164444,825.108643 
	C139.428696,823.651611 139.488861,822.803772 139.549011,821.955933 
	C139.676178,821.208008 139.803360,820.460144 140.130219,819.098145 
	C140.382050,817.639404 140.434174,816.794678 140.486313,815.950012 
	C140.654129,814.892761 140.821930,813.835449 141.197845,812.143372 
	C141.473404,810.659119 141.540848,809.809631 141.608292,808.960205 
	C141.725739,808.213013 141.843201,807.465820 142.163513,806.107910 
	C142.426498,804.650269 142.486618,803.803406 142.546753,802.956482 
	C142.673431,802.207947 142.800110,801.459412 143.125854,800.096436 
	C143.376984,798.638245 143.429047,797.794495 143.481110,796.950745 
	C143.650620,795.893005 143.820145,794.835327 144.195892,793.141968 
	C144.468750,791.657654 144.535385,790.808838 144.602051,789.960083 
	C144.720383,789.212646 144.838684,788.465271 145.159302,787.106689 
	C145.423172,785.648865 145.484741,784.802307 145.546295,783.955688 
	C145.671585,783.207031 145.796890,782.458374 146.121399,781.095154 
	C146.370956,779.637207 146.421295,778.793884 146.471619,777.950500 
	C146.642822,776.893250 146.814041,775.835938 147.176178,774.180420 
	C147.377106,773.036377 147.387085,772.490540 147.397064,771.944702 
	C147.582230,770.886719 147.767380,769.828674 148.155334,768.131714 
	C148.415421,766.646179 148.472717,765.799622 148.529999,764.953064 
	C148.659119,764.205200 148.788223,763.457275 149.117523,762.095703 
	C149.367661,760.638184 149.417618,759.794434 149.467575,758.950623 
	C149.639114,757.892395 149.810654,756.834167 150.187897,755.140381 
	C150.458237,753.655945 150.522842,752.806946 150.587463,751.958008 
	C150.707840,751.210327 150.828217,750.462708 151.150391,749.104675 
	C151.410095,747.647156 151.468002,746.800049 151.525909,745.952881 
	C151.655136,745.205078 151.784363,744.457214 152.114441,743.094727 
	C152.364639,741.636841 152.413971,740.793579 152.463318,739.950378 
	C152.634399,738.891968 152.805511,737.833557 153.182358,736.139526 
	C153.452255,734.655151 153.516434,733.806519 153.580597,732.957825 
	C153.702454,732.210083 153.824295,731.462280 154.147247,730.103516 
	C154.409119,728.646301 154.469879,727.799988 154.530624,726.953735 
	C154.657974,726.205200 154.785324,725.456726 155.111816,724.093018 
	C155.358398,722.635315 155.405853,721.792847 155.453308,720.950317 
	C155.628128,719.892212 155.802948,718.834045 156.183762,717.139282 
	C156.449692,715.654053 156.509628,714.805359 156.569550,713.956726 
	C156.694046,713.209290 156.818558,712.461853 157.143951,711.102295 
	C157.401901,709.644531 157.458939,708.798950 157.515976,707.953369 
	C157.648743,707.204529 157.781494,706.455627 158.120026,705.067505 
	C158.426941,703.273621 158.528091,702.118896 158.629242,700.964233 
	C158.744736,700.217102 158.860245,699.469910 159.179993,698.112061 
	C159.446716,696.653320 159.509232,695.805359 159.571747,694.957397 
	C159.694550,694.210022 159.817368,693.462585 160.142609,692.102295 
	C160.399323,690.643799 160.453629,689.798096 160.507919,688.952454 
	C160.641006,688.203613 160.774109,687.454834 161.113968,686.066650 
	C161.422256,684.272949 161.523788,683.118530 161.625305,681.964111 
	C161.742691,681.217163 161.860062,680.470154 162.181656,679.111755 
	C162.444229,677.652405 162.502594,676.804443 162.560959,675.956543 
	C162.684906,675.208435 162.808853,674.460388 163.132904,673.100098 
	C163.392197,671.642517 163.451385,670.797241 163.510559,669.951904 
	C163.641449,669.202820 163.772324,668.453735 164.109268,667.065063 
	C164.417648,665.271362 164.519943,664.117188 164.622253,662.963074 
	C164.737274,662.215515 164.852295,661.468018 165.173065,660.111206 
	C165.436218,658.652710 165.493637,657.803345 165.551056,656.954041 
	C165.678192,656.206482 165.805328,655.458984 166.132843,654.099121 
	C166.388474,652.641602 166.443756,651.796265 166.499023,650.950989 
	C166.633545,650.203186 166.768066,649.455383 167.099960,648.089966 
	C167.336487,646.630493 167.375626,645.788757 167.414764,644.946960 
	C167.595703,643.888000 167.776657,642.829041 168.161835,641.135254 
	C168.428375,639.652344 168.490692,638.804199 168.553009,637.956055 
	C168.678970,637.207947 168.804916,636.459900 169.130493,635.098083 
	C169.383698,633.639893 169.437286,632.795471 169.490875,631.950989 
	C169.627686,631.202942 169.764511,630.454956 170.106171,629.064087 
	C170.411697,627.268066 170.512390,626.114746 170.613068,624.961487 
	C170.728775,624.213501 170.844498,623.465515 171.162201,622.107666 
	C171.425034,620.650635 171.485886,619.803589 171.546753,618.956482 
	C171.673416,618.207947 171.800095,617.459412 172.125824,616.096558 
	C172.378586,614.638428 172.432312,613.794617 172.486023,612.950806 
	C172.653885,611.893250 172.821747,610.835754 173.197601,609.143188 
	C173.471832,607.658630 173.538071,606.809021 173.604279,605.959412 
	C173.722610,605.212341 173.840942,604.465332 174.162903,603.107544 
	C174.425079,601.649780 174.483612,600.802673 174.542145,599.955566 
	C174.670410,599.207214 174.798691,598.458801 175.124176,597.095337 
	C175.373230,595.637085 175.425095,594.793823 175.476959,593.950623 
	C175.647339,592.893127 175.817719,591.835693 176.194656,590.142212 
	C176.466232,588.657104 176.531250,587.808105 176.596283,586.959045 
	C176.715530,586.211731 176.834793,585.464355 177.155716,584.105347 
	C177.417740,582.647461 177.478104,581.801147 177.538467,580.954895 
	C177.664703,580.206299 177.790955,579.457703 178.116119,578.094482 
	C178.365570,576.636536 178.416107,575.793213 178.466614,574.949829 
	C178.639709,573.892517 178.812820,572.835266 179.193054,571.141846 
	C179.464294,569.656799 179.528397,568.807800 179.592499,567.958801 
	C179.710831,567.210632 179.829163,566.462402 180.147766,565.103699 
	C180.408905,563.646729 180.469757,562.800232 180.530609,561.953796 
	C180.658722,561.205627 180.786850,560.457520 181.116302,559.095581 
	C181.367294,557.637878 181.416977,556.793884 181.466644,555.949951 
	C181.636002,554.892029 181.805359,553.834045 182.183350,552.140869 
	C182.454834,550.656433 182.517700,549.807129 182.580566,548.957886 
	C182.703094,548.210144 182.825607,547.462463 183.149063,546.103394 
	C183.408875,544.645996 183.467743,543.799866 183.526611,542.953735 
	C183.655685,542.205322 183.784760,541.456909 184.123978,540.066528 
	C184.373322,538.267151 184.412521,537.109802 184.451721,535.952393 
	C184.626862,534.893799 184.802017,533.835205 185.183075,532.140137 
	C185.451889,530.655151 185.514771,529.806641 185.577652,528.958191 
	C185.699692,528.210327 185.821732,527.462524 186.146454,526.103394 
	C186.407211,524.645996 186.465286,523.799805 186.523346,522.953674 
	C186.653610,522.205078 186.783859,521.456482 187.121521,520.067932 
	C187.429825,518.273193 187.530731,517.118408 187.631638,515.963623 
	C187.747025,515.216797 187.862411,514.469910 188.181686,513.112061 
	C188.447433,511.653137 188.509293,510.805237 188.571136,509.957336 
	C188.694962,509.209747 188.818771,508.462189 189.142212,507.101501 
	C189.399872,505.643402 189.457932,504.798370 189.515976,503.953369 
	C189.646118,503.204041 189.776245,502.454712 190.113037,501.066711 
	C190.421768,499.273376 190.523849,498.118744 190.625916,496.964111 
	C190.742645,496.216919 190.859375,495.469696 191.180573,494.111633 
	C191.444855,492.652863 191.504700,491.805023 191.564514,490.957153 
	C191.689331,490.209229 191.814133,489.461304 192.139084,488.100708 
	C192.394974,486.642609 192.450699,485.797180 192.506409,484.951721 
	C192.639389,484.202972 192.772369,483.454193 193.112335,482.066406 
	C193.421356,480.272949 193.523392,479.118469 193.625412,477.964020 
	C193.740097,477.216278 193.854767,476.468536 194.174667,475.111450 
	C194.438644,473.653198 194.497421,472.804321 194.556213,471.955414 
	C194.681046,471.207520 194.805878,470.459625 195.131287,469.099670 
	C195.388458,467.641876 195.445068,466.796112 195.501678,465.950378 
	C195.635880,465.202332 195.770050,464.454315 196.101654,463.090332 
	C196.339401,461.632172 196.379715,460.789948 196.420029,459.947693 
	C196.602051,458.889557 196.784088,457.831451 197.171280,456.136627 
	C197.435059,454.651733 197.493683,453.803558 197.552307,452.955353 
	C197.677673,452.207245 197.803055,451.459137 198.128204,450.098175 
	C198.384995,448.640564 198.442001,447.795807 198.499008,446.951050 
	C198.632874,446.202698 198.766724,445.454315 199.105591,444.063904 
	C199.410828,442.268555 199.511063,441.115295 199.611298,439.962036 
	C199.727646,439.213989 199.843994,438.465912 200.164459,437.108612 
	C200.428711,435.651489 200.488876,434.803589 200.549042,433.955719 
	C200.676208,433.207825 200.803375,432.459961 201.130249,431.098083 
	C201.382065,429.639435 201.434189,428.794739 201.486298,427.950073 
	C201.654099,426.892822 201.821884,425.835541 202.197571,424.143463 
	C202.473083,422.659180 202.540695,421.809723 202.608307,420.960266 
	C202.725754,420.213043 202.843201,419.465820 203.163513,418.107880 
	C203.426514,416.650299 203.486633,415.803406 203.546753,414.956543 
	C203.673416,414.208038 203.800095,413.459534 204.125824,412.096588 
	C204.376968,410.638336 204.429047,409.794495 204.481125,408.950684 
	C204.650650,407.893036 204.820175,406.835358 205.195892,405.142090 
	C205.468735,403.657623 205.535400,402.808777 205.602066,401.959961 
	C205.720383,401.212494 205.838699,400.464996 206.159302,399.106384 
	C206.423157,397.648712 206.484711,396.802155 206.546265,395.955627 
	C206.671814,395.207001 206.797363,394.458344 207.121475,393.095154 
	C207.370560,391.637207 207.421097,390.793884 207.471619,389.950531 
	C207.642822,388.893280 207.814041,387.835999 208.176178,386.180511 
	C208.377106,385.036469 208.387070,384.490631 208.397034,383.944824 
	C208.582184,382.886810 208.767349,381.828766 209.155304,380.131775 
	C209.415405,378.646210 209.472702,377.799652 209.529999,376.953094 
	C209.659180,376.205170 209.788361,375.457275 210.118317,374.095551 
	C210.368591,372.638031 210.418076,371.794281 210.467575,370.950562 
	C210.639130,369.892395 210.810654,368.834229 211.187881,367.140503 
	C211.458206,365.655945 211.522842,364.806976 211.587463,363.958008 
	C211.707657,363.210236 211.827835,362.462494 212.148224,361.103638 
	C212.407593,359.646027 212.466751,358.799469 212.525909,357.952911 
	C212.655136,357.205078 212.784378,356.457245 213.114441,355.094727 
	C213.364609,353.636841 213.413940,352.793671 213.463287,351.950470 
	C213.634399,350.892059 213.805527,349.833618 214.182358,348.139526 
	C214.452255,346.655151 214.516434,345.806458 214.580597,344.957794 
	C214.702438,344.209991 214.824280,343.462189 215.147217,342.103516 
	C215.409317,340.646576 215.470306,339.800537 215.531311,338.954498 
	C215.658310,338.205627 215.785294,337.456757 216.111191,336.093079 
	C216.357864,334.635559 216.405609,333.792847 216.453354,332.950165 
	C216.627487,331.891998 216.801620,330.833862 217.182144,329.139343 
	C217.448883,327.654205 217.509216,326.805481 217.569580,325.956726 
	C217.694077,325.209259 217.818573,324.461823 218.143982,323.102203 
	C218.401917,321.644470 218.458969,320.798889 218.516006,319.953308 
	C218.648758,319.204468 218.781509,318.455627 219.120026,317.067566 
	C219.426926,315.273651 219.528076,314.118896 219.629211,312.964172 
	C219.744720,312.217072 219.860229,311.469940 220.179962,310.112061 
	C220.446686,308.653320 220.509216,307.805359 220.571747,306.957367 
	C220.694611,306.209930 220.817459,305.462494 221.142975,304.102356 
	C221.399719,302.643951 221.453796,301.798279 221.507874,300.952576 
	C221.640411,300.203613 221.772934,299.454620 222.112732,298.066589 
	C222.421768,296.273010 222.523544,295.118530 222.625320,293.964020 
	C222.742691,293.217072 222.860062,292.470093 223.181702,291.111725 
	C223.444290,289.652313 223.502625,288.804321 223.560974,287.956329 
	C223.684906,287.208282 223.808853,286.460205 224.132889,285.099945 
	C224.392166,283.642487 224.451355,282.797241 224.510559,281.951996 
	C224.641434,281.202942 224.772324,280.453857 225.109314,279.065186 
	C225.417679,277.271454 225.519958,276.117371 225.622223,274.963287 
	C225.737259,274.215668 225.852295,273.468048 226.173050,272.111237 
	C226.436432,270.652924 226.494080,269.803802 226.551743,268.954681 
	C226.678131,268.206940 226.804520,267.459229 227.132050,266.099213 
	C227.388474,264.641663 227.443741,263.796356 227.499023,262.951080 
	C227.633545,262.203247 227.768082,261.455383 228.099945,260.089905 
	C228.336426,258.630585 228.375580,257.788879 228.414719,256.947205 
	C228.595673,255.888214 228.776642,254.829239 229.161835,253.135422 
	C229.428543,251.652634 229.491058,250.804688 229.553574,249.956726 
	C229.679459,249.208618 229.805344,248.460526 230.132202,247.099213 
	C230.385757,245.640976 230.438324,244.795914 230.490875,243.950867 
	C230.627686,243.202850 230.764511,242.454834 231.106201,241.063904 
	C231.409729,239.267517 231.508377,238.114044 231.607025,236.960571 
	C231.724854,236.212845 231.842682,235.465134 232.162354,234.107544 
	C232.425049,232.650604 232.485901,231.803528 232.546753,230.956451 
	C232.673416,230.207977 232.800079,229.459503 233.125763,228.096695 
	C233.378540,226.638504 233.432297,225.794632 233.486038,224.950775 
	C233.653900,223.893250 233.821762,222.835709 234.197601,221.143250 
	C234.471832,219.658676 234.538071,218.809036 234.604294,217.959381 
	C234.722763,217.212280 234.841232,216.465179 235.163254,215.107330 
	C235.425247,213.649597 235.483688,212.802612 235.542114,211.955612 
	C235.670410,211.207169 235.798691,210.458740 236.124283,209.095062 
	C236.371353,207.636536 236.421112,206.793213 236.470886,205.949905 
	C236.643280,204.892731 236.815689,203.835556 237.194412,202.142258 
	C237.465912,200.657104 237.531097,199.808075 237.596283,198.959045 
	C237.715546,198.211639 237.834808,197.464233 238.155762,196.105194 
	C238.417801,194.647308 238.478134,193.801056 238.538483,192.954819 
	C238.664963,192.206833 238.791443,191.458862 239.119232,190.095932 
	C239.369247,188.637253 239.417938,187.793503 239.466614,186.949768 
	C239.639725,185.892517 239.812820,184.835266 240.193054,183.141937 
	C240.464279,181.656845 240.528381,180.807861 240.592468,179.958862 
	C240.710800,179.210648 240.829132,178.462433 241.147797,177.103638 
	C241.408951,175.646622 241.469772,174.800186 241.530609,173.953766 
	C241.659042,173.205917 241.787460,172.458069 242.117523,171.095795 
	C242.366699,169.637299 242.414200,168.793243 242.461700,167.949188 
	C242.632690,166.891510 242.803696,165.833847 243.183380,164.140869 
	C243.454895,162.656296 243.517746,161.807022 243.580597,160.957733 
	C243.703110,160.210052 243.825607,159.462357 244.149048,158.103394 
	C244.408859,156.645966 244.467743,155.799835 244.526611,154.953690 
	C244.655609,154.205597 244.784622,153.457520 245.114441,152.094467 
	C245.360687,150.635956 245.406128,149.792419 245.451569,148.948868 
	C245.627243,147.891190 245.802917,146.833527 246.184158,145.139481 
	C246.452377,143.654861 246.514999,142.806595 246.577637,141.958344 
	C246.699493,141.210342 246.821365,140.462357 247.144287,139.102325 
	C247.404694,137.644730 247.464035,136.799133 247.523361,135.953552 
	C247.653595,135.205017 247.783844,134.456497 248.121490,133.067963 
	C248.429535,131.273193 248.530167,130.118423 248.630798,128.963669 
	C248.746552,128.216751 248.862305,127.469833 249.181717,126.111969 
	C249.447296,124.653145 249.509216,123.805267 249.571136,122.957390 
	C249.694946,122.209801 249.818756,121.462204 250.142181,120.101517 
	C250.399857,118.643410 250.457916,117.798393 250.515961,116.953377 
	C250.646103,116.204048 250.776230,115.454727 251.113007,114.066727 
	C251.421875,112.273605 251.524109,111.119148 251.626358,109.964691 
	C251.742950,109.217323 251.859528,108.469948 252.180573,107.111618 
	C252.444855,105.652802 252.504700,104.804939 252.564545,103.957069 
	C252.689362,103.209160 252.814163,102.461250 253.139084,101.100708 
	C253.394943,99.642677 253.450684,98.797264 253.506409,97.951859 
	C253.639389,97.203087 253.772385,96.454323 254.112335,95.066498 
	C254.421341,93.272972 254.523376,92.118500 254.625427,90.964027 
	C254.740097,90.216270 254.854782,89.468513 255.174667,88.111404 
	C255.438660,86.653191 255.497437,85.804329 255.556213,84.955460 
	C255.681046,84.207535 255.805878,83.459602 256.131317,82.099617 
	C256.388489,80.641830 256.445099,79.796104 256.501678,78.950371 
	C256.635284,78.202271 256.768890,77.454163 257.100342,76.090332 
	C257.338806,74.632324 257.379395,73.790039 257.419983,72.947762 
	C257.602051,71.889610 257.784119,70.831467 258.171295,69.136597 
	C258.435059,67.651711 258.493713,66.803528 258.552338,65.955353 
	C258.677704,65.207268 258.803101,64.459183 259.128235,63.098221 
	C259.385010,61.640549 259.442017,60.795753 259.499023,59.950958 
	C259.632996,59.202564 259.766968,58.454170 260.105896,57.063675 
	C260.410980,55.268391 260.511169,54.115211 260.611328,52.962029 
	C260.727661,52.213989 260.843994,51.465950 261.164459,50.108662 
	C261.428802,48.651550 261.488983,47.803688 261.549194,46.955826 
	C261.675476,46.208000 261.801758,45.460171 262.129395,44.097927 
	C262.381989,42.638794 262.433228,41.794075 262.484497,40.949356 
	C262.653229,39.892242 262.821930,38.835129 263.198120,37.143314 
	C263.473145,35.659157 263.540741,34.809700 263.608337,33.960239 
	C263.725769,33.213028 263.843201,32.465816 264.163513,31.107864 
	C264.426483,29.650238 264.486603,28.803358 264.546722,27.956474 
	C264.673370,27.207989 264.800049,26.459505 265.125793,25.096638 
	C265.377167,23.638639 265.429504,22.795021 265.481812,21.951403 
	C265.651093,20.893522 265.820404,19.835644 266.195923,18.141909 
	C266.466858,16.657057 266.531586,15.808059 266.596313,14.959063 
	C266.716614,14.211931 266.836945,13.464798 267.159485,12.106240 
	C267.420380,10.647894 267.479095,9.800970 267.537811,8.954046 
	C267.666138,8.213481 267.794495,7.472917 267.893311,6.355438 
z"/>
<path fill="#F2EEE5" opacity="1.000000" stroke="none" 
	d="
M119.683907,997.257996 
	C121.177711,1000.455566 122.431496,1003.875732 123.680908,1007.664551 
	C122.265656,1004.515686 120.854767,1000.998108 119.683907,997.257996 
z"/>
<path fill="#F2EEE5" opacity="1.000000" stroke="none" 
	d="
M116.625580,979.287964 
	C117.162132,980.468811 117.454956,981.884399 117.651550,983.670410 
	C117.164162,982.534790 116.773003,981.028809 116.625580,979.287964 
z"/>
<path fill="#F2EEE5" opacity="1.000000" stroke="none" 
	d="
M248.329010,129.052979 
	C248.530167,130.118423 248.429535,131.273193 248.093964,132.686768 
	C247.915100,131.677811 247.971161,130.410065 248.329010,129.052979 
z"/>
<path fill="#F2EEE5" opacity="1.000000" stroke="none" 
	d="
M184.170181,536.062134 
	C184.412521,537.109802 184.373322,538.267151 184.097198,539.685425 
	C183.869736,538.688171 183.879196,537.429993 184.170181,536.062134 
z"/>
<path fill="#F2EEE5" opacity="1.000000" stroke="none" 
	d="
M132.324554,866.053467 
	C132.523376,867.118530 132.421326,868.273010 132.082916,869.684937 
	C131.905579,868.675842 131.964630,867.409363 132.324554,866.053467 
z"/>
<path fill="#F2EEE5" opacity="1.000000" stroke="none" 
	d="
M135.319824,847.053101 
	C135.518677,848.117310 135.417252,849.271423 135.080475,850.683838 
	C134.903259,849.675781 134.961411,848.409485 135.319824,847.053101 
z"/>
<path fill="#F2EEE5" opacity="1.000000" stroke="none" 
	d="
M138.311859,828.052612 
	C138.511078,829.115173 138.410843,830.268372 138.077332,831.681885 
	C137.900146,830.675903 137.956284,829.409607 138.311859,828.052612 
z"/>
<path fill="#F2EEE5" opacity="1.000000" stroke="none" 
	d="
M231.307953,237.052124 
	C231.508377,238.114044 231.409729,239.267517 231.078613,240.681915 
	C230.900375,239.676453 230.954620,238.410065 231.307953,237.052124 
z"/>
<path fill="#F2EEE5" opacity="1.000000" stroke="none" 
	d="
M225.321793,275.053009 
	C225.519958,276.117371 225.417679,277.271454 225.079651,278.683594 
	C224.903046,277.675323 224.962204,276.409027 225.321793,275.053009 
z"/>
<path fill="#F2EEE5" opacity="1.000000" stroke="none" 
	d="
M222.324478,294.053467 
	C222.523544,295.118530 222.421768,296.273010 222.083267,297.684875 
	C221.905579,296.675781 221.964600,295.409332 222.324478,294.053467 
z"/>
<path fill="#F2EEE5" opacity="1.000000" stroke="none" 
	d="
M219.327698,313.053314 
	C219.528076,314.118896 219.426926,315.273651 219.089691,316.686157 
	C218.911133,315.676788 218.968643,314.409607 219.327698,313.053314 
z"/>
<path fill="#F2EEE5" opacity="1.000000" stroke="none" 
	d="
M158.327698,701.053345 
	C158.528091,702.118896 158.426941,703.273621 158.089722,704.686096 
	C157.911148,703.676758 157.968643,702.409668 158.327698,701.053345 
z"/>
<path fill="#F2EEE5" opacity="1.000000" stroke="none" 
	d="
M161.324417,682.053589 
	C161.523788,683.118530 161.422256,684.272949 161.084412,685.685059 
	C160.906570,684.676147 160.965057,683.409607 161.324417,682.053589 
z"/>
<path fill="#F2EEE5" opacity="1.000000" stroke="none" 
	d="
M164.321808,663.052917 
	C164.519943,664.117188 164.417648,665.271362 164.079620,666.683594 
	C163.903046,665.675354 163.962219,664.409058 164.321808,663.052917 
z"/>
<path fill="#F2EEE5" opacity="1.000000" stroke="none" 
	d="
M170.313354,625.052246 
	C170.512390,626.114746 170.411697,627.268066 170.078583,628.682068 
	C169.901962,627.676208 169.957779,626.409546 170.313354,625.052246 
z"/>
<path fill="#F2EEE5" opacity="1.000000" stroke="none" 
	d="
M199.311829,440.052734 
	C199.511063,441.115295 199.410828,442.268555 199.077301,443.682129 
	C198.900116,442.676086 198.956238,441.409729 199.311829,440.052734 
z"/>
<path fill="#F2EEE5" opacity="1.000000" stroke="none" 
	d="
M193.324524,478.053406 
	C193.523392,479.118469 193.421356,480.272949 193.082916,481.684814 
	C192.905563,480.675751 192.964600,479.409271 193.324524,478.053406 
z"/>
<path fill="#F2EEE5" opacity="1.000000" stroke="none" 
	d="
M190.325043,497.053406 
	C190.523849,498.118744 190.421768,499.273376 190.082397,500.685120 
	C189.904785,499.675690 189.964478,498.409210 190.325043,497.053406 
z"/>
<path fill="#F2EEE5" opacity="1.000000" stroke="none" 
	d="
M187.329773,516.052856 
	C187.530731,517.118408 187.429825,518.273193 187.093979,519.686768 
	C186.915329,518.677673 186.971619,517.409851 187.329773,516.052856 
z"/>
<path fill="#F2EEE5" opacity="1.000000" stroke="none" 
	d="
M129.324097,885.052979 
	C129.523148,886.118164 129.421417,887.273071 129.082367,888.685059 
	C128.904495,887.675720 128.963928,886.409180 129.324097,885.052979 
z"/>
<path fill="#F2EEE5" opacity="1.000000" stroke="none" 
	d="
M117.278854,962.056152 
	C117.506126,963.118286 117.436089,964.276978 117.131310,965.695801 
	C116.924889,964.688171 116.953217,963.420349 117.278854,962.056152 
z"/>
<path fill="#F2EEE5" opacity="1.000000" stroke="none" 
	d="
M251.325409,110.053802 
	C251.524109,111.119148 251.421875,112.273605 251.082367,113.685135 
	C250.904892,112.675774 250.964691,111.409340 251.325409,110.053802 
z"/>
<path fill="#F2EEE5" opacity="1.000000" stroke="none" 
	d="
M260.311829,53.052719 
	C260.511169,54.115211 260.410980,55.268391 260.077576,56.681877 
	C259.900330,55.675922 259.956360,54.409668 260.311829,53.052719 
z"/>
<path fill="#F2EEE5" opacity="1.000000" stroke="none" 
	d="
M254.324554,91.053421 
	C254.523376,92.118500 254.421341,93.272972 254.082916,94.684891 
	C253.905579,93.675819 253.964630,92.409317 254.324554,91.053421 
z"/>
<path fill="#F2EEE5" opacity="1.000000" stroke="none" 
	d="
M126.327072,904.053101 
	C126.528732,905.118225 126.428848,906.273071 126.094009,907.686646 
	C125.914543,906.677917 125.970039,905.410278 126.327072,904.053101 
z"/>
<path fill="#F2EEE5" opacity="1.000000" stroke="none" 
	d="
M166.227234,651.038208 
	C166.443756,651.796265 166.388474,652.641602 166.103455,653.718750 
	C165.900940,653.008911 165.928192,652.067139 166.227234,651.038208 
z"/>
<path fill="#F2EEE5" opacity="1.000000" stroke="none" 
	d="
M173.318649,606.037476 
	C173.538071,606.809021 173.471832,607.658630 173.175262,608.739685 
	C172.974274,608.019287 173.003632,607.067444 173.318649,606.037476 
z"/>
<path fill="#F2EEE5" opacity="1.000000" stroke="none" 
	d="
M172.215820,613.039062 
	C172.432312,613.794617 172.378586,614.638428 172.097229,615.716064 
	C171.894928,615.009033 171.920273,614.068176 172.215820,613.039062 
z"/>
<path fill="#F2EEE5" opacity="1.000000" stroke="none" 
	d="
M171.268570,619.038818 
	C171.485886,619.803589 171.425034,620.650635 171.133087,621.728516 
	C170.931458,621.013184 170.960938,620.067200 171.268570,619.038818 
z"/>
<path fill="#F2EEE5" opacity="1.000000" stroke="none" 
	d="
M169.220093,632.039124 
	C169.437286,632.795471 169.383698,633.639893 169.102173,634.717773 
	C168.899246,634.009827 168.924286,633.068542 169.220093,632.039124 
z"/>
<path fill="#F2EEE5" opacity="1.000000" stroke="none" 
	d="
M168.274445,638.038208 
	C168.490692,638.804199 168.428375,639.652344 168.132935,640.729675 
	C167.931839,640.012695 167.963852,639.066467 168.274445,638.038208 
z"/>
<path fill="#F2EEE5" opacity="1.000000" stroke="none" 
	d="
M167.154510,645.042419 
	C167.375626,645.788757 167.336487,646.630493 167.071960,647.708374 
	C166.862488,647.008911 166.878372,646.073425 167.154510,645.042419 
z"/>
<path fill="#F2EEE5" opacity="1.000000" stroke="none" 
	d="
M175.208008,594.039795 
	C175.425095,594.793823 175.373230,595.637085 175.094696,596.714783 
	C174.891708,596.009216 174.915375,595.069092 175.208008,594.039795 
z"/>
<path fill="#F2EEE5" opacity="1.000000" stroke="none" 
	d="
M165.272186,657.037231 
	C165.493637,657.803345 165.436218,658.652710 165.146423,659.732300 
	C164.940491,659.015198 164.966919,658.067810 165.272186,657.037231 
z"/>
<path fill="#F2EEE5" opacity="1.000000" stroke="none" 
	d="
M122.248154,930.038330 
	C122.465508,930.799866 122.407700,931.645935 122.119614,932.723511 
	C121.917221,932.010986 121.945107,931.066895 122.248154,930.038330 
z"/>
<path fill="#F2EEE5" opacity="1.000000" stroke="none" 
	d="
M163.237457,670.037720 
	C163.451385,670.797241 163.392197,671.642517 163.103119,672.719788 
	C162.903595,672.008972 162.933960,671.066284 163.237457,670.037720 
z"/>
<path fill="#F2EEE5" opacity="1.000000" stroke="none" 
	d="
M162.280426,676.038513 
	C162.502594,676.804443 162.444229,677.652405 162.157181,678.732910 
	C161.952286,678.017151 161.976089,677.068787 162.280426,676.038513 
z"/>
<path fill="#F2EEE5" opacity="1.000000" stroke="none" 
	d="
M123.186234,924.040710 
	C123.406151,924.792358 123.360687,925.635925 123.087479,926.713562 
	C122.880112,926.009277 122.900490,925.070984 123.186234,924.040710 
z"/>
<path fill="#F2EEE5" opacity="1.000000" stroke="none" 
	d="
M174.264313,600.038635 
	C174.483612,600.802673 174.425079,601.649780 174.136612,602.728638 
	C173.933289,602.014099 173.959885,601.067932 174.264313,600.038635 
z"/>
<path fill="#F2EEE5" opacity="1.000000" stroke="none" 
	d="
M124.295593,917.038757 
	C124.514557,917.806641 124.451462,918.655151 124.158173,919.735413 
	C123.956490,919.017944 123.985008,918.068604 124.295593,917.038757 
z"/>
<path fill="#F2EEE5" opacity="1.000000" stroke="none" 
	d="
M121.297791,936.038330 
	C121.518654,936.806702 121.456718,937.655579 121.165184,938.736633 
	C120.962059,938.018799 120.988525,937.068787 121.297791,936.038330 
z"/>
<path fill="#F2EEE5" opacity="1.000000" stroke="none" 
	d="
M176.311615,587.037964 
	C176.531250,587.808105 176.466232,588.657104 176.171844,589.738403 
	C175.970627,589.019348 175.998779,588.068115 176.311615,587.037964 
z"/>
<path fill="#F2EEE5" opacity="1.000000" stroke="none" 
	d="
M177.261353,581.038086 
	C177.478104,581.801147 177.417740,582.647461 177.128098,583.726196 
	C176.927292,583.012878 176.955780,582.067078 177.261353,581.038086 
z"/>
<path fill="#F2EEE5" opacity="1.000000" stroke="none" 
	d="
M178.199417,575.040161 
	C178.416107,575.793213 178.365570,576.636536 178.087433,577.713867 
	C177.883926,577.008667 177.908066,576.069519 178.199417,575.040161 
z"/>
<path fill="#F2EEE5" opacity="1.000000" stroke="none" 
	d="
M179.308136,568.037842 
	C179.528397,568.807800 179.464294,569.656799 179.170959,570.737915 
	C178.969070,570.018982 178.996429,569.067871 179.308136,568.037842 
z"/>
<path fill="#F2EEE5" opacity="1.000000" stroke="none" 
	d="
M180.254669,562.037354 
	C180.469757,562.800232 180.408905,563.646729 180.117050,564.724060 
	C179.916946,564.010254 179.947830,563.065613 180.254669,562.037354 
z"/>
<path fill="#F2EEE5" opacity="1.000000" stroke="none" 
	d="
M120.199692,943.040588 
	C120.417015,943.793945 120.367348,944.637878 120.088898,945.714844 
	C119.884308,945.008911 119.908501,944.070068 120.199692,943.040588 
z"/>
<path fill="#F2EEE5" opacity="1.000000" stroke="none" 
	d="
M181.199646,556.040588 
	C181.416977,556.793884 181.367294,557.637878 181.088852,558.714783 
	C180.884277,558.008911 180.908463,557.070068 181.199646,556.040588 
z"/>
<path fill="#F2EEE5" opacity="1.000000" stroke="none" 
	d="
M119.254669,949.037354 
	C119.469765,949.800232 119.408905,950.646729 119.117035,951.724060 
	C118.916924,951.010315 118.947823,950.065613 119.254669,949.037354 
z"/>
<path fill="#F2EEE5" opacity="1.000000" stroke="none" 
	d="
M118.308281,955.037720 
	C118.527863,955.807983 118.463249,956.657104 118.168549,957.737671 
	C117.967003,957.018311 117.995552,956.067505 118.308281,955.037720 
z"/>
<path fill="#F2EEE5" opacity="1.000000" stroke="none" 
	d="
M182.298035,549.038086 
	C182.517700,549.807129 182.454834,550.656433 182.160721,551.736694 
	C181.958145,551.017944 181.986816,550.068176 182.298035,549.038086 
z"/>
<path fill="#F2EEE5" opacity="1.000000" stroke="none" 
	d="
M183.251083,543.037964 
	C183.467743,543.799866 183.408875,544.645996 183.119675,545.723572 
	C182.918076,545.010742 182.946808,544.066467 183.251083,543.037964 
z"/>
<path fill="#F2EEE5" opacity="1.000000" stroke="none" 
	d="
M191.283691,491.038483 
	C191.504700,491.805023 191.444855,492.652863 191.155716,493.732727 
	C190.951889,493.016449 190.977371,492.068115 191.283691,491.038483 
z"/>
<path fill="#F2EEE5" opacity="1.000000" stroke="none" 
	d="
M127.289833,898.038574 
	C127.509056,898.805359 127.446968,899.653381 127.155464,900.733398 
	C126.953545,900.016907 126.981041,899.068298 127.289833,898.038574 
z"/>
<path fill="#F2EEE5" opacity="1.000000" stroke="none" 
	d="
M131.234558,873.038086 
	C131.451660,873.797668 131.395370,874.643066 131.109756,875.720825 
	C130.907364,875.010132 130.934280,874.066956 131.234558,873.038086 
z"/>
<path fill="#F2EEE5" opacity="1.000000" stroke="none" 
	d="
M133.276672,860.037842 
	C133.497421,860.804321 133.438644,861.653259 133.147980,862.732544 
	C132.943130,862.015381 132.970139,861.067810 133.276672,860.037842 
z"/>
<path fill="#F2EEE5" opacity="1.000000" stroke="none" 
	d="
M134.229645,854.037476 
	C134.445053,854.796204 134.388458,855.641907 134.101379,856.719299 
	C133.899811,856.008850 133.928711,855.066650 134.229645,854.037476 
z"/>
<path fill="#F2EEE5" opacity="1.000000" stroke="none" 
	d="
M136.273239,841.038208 
	C136.493713,841.803528 136.435120,842.651733 136.145844,843.731201 
	C135.941498,843.015442 135.967834,842.068237 136.273239,841.038208 
z"/>
<path fill="#F2EEE5" opacity="1.000000" stroke="none" 
	d="
M137.227386,835.037964 
	C137.442047,835.795776 137.385040,836.640564 137.098999,837.717834 
	C136.898544,837.008545 136.927139,836.066772 137.227386,835.037964 
z"/>
<path fill="#F2EEE5" opacity="1.000000" stroke="none" 
	d="
M128.241760,892.038513 
	C128.457932,892.798401 128.399872,893.643433 128.113556,894.721497 
	C127.912689,894.010925 127.940102,893.067261 128.241760,892.038513 
z"/>
<path fill="#F2EEE5" opacity="1.000000" stroke="none" 
	d="
M139.270538,822.038330 
	C139.488861,822.803772 139.428696,823.651611 139.136322,824.729431 
	C138.933411,824.013184 138.962738,823.066956 139.270538,822.038330 
z"/>
<path fill="#F2EEE5" opacity="1.000000" stroke="none" 
	d="
M140.215820,816.038269 
	C140.434174,816.794678 140.382050,817.639404 140.101929,818.717651 
	C139.897720,818.009705 139.921524,817.068115 140.215820,816.038269 
z"/>
<path fill="#F2EEE5" opacity="1.000000" stroke="none" 
	d="
M141.322235,809.037720 
	C141.540848,809.809631 141.473404,810.659119 141.175385,811.739746 
	C140.975281,811.019104 141.005722,810.067200 141.322235,809.037720 
z"/>
<path fill="#F2EEE5" opacity="1.000000" stroke="none" 
	d="
M142.268402,803.038879 
	C142.486618,803.803406 142.426498,804.650269 142.136398,805.728882 
	C141.934296,805.014160 141.962173,804.067688 142.268402,803.038879 
z"/>
<path fill="#F2EEE5" opacity="1.000000" stroke="none" 
	d="
M143.211563,797.039551 
	C143.429047,797.794495 143.376984,798.638245 143.097260,799.715942 
	C142.893723,799.009338 142.917862,798.068909 143.211563,797.039551 
z"/>
<path fill="#F2EEE5" opacity="1.000000" stroke="none" 
	d="
M144.316742,790.038208 
	C144.535385,790.808838 144.468750,791.657654 144.172729,792.738281 
	C143.972733,792.018860 144.002075,791.067627 144.316742,790.038208 
z"/>
<path fill="#F2EEE5" opacity="1.000000" stroke="none" 
	d="
M145.268204,784.038086 
	C145.484741,784.802307 145.423172,785.648865 145.132034,786.727417 
	C144.931671,786.013123 144.960892,785.066833 145.268204,784.038086 
z"/>
<path fill="#F2EEE5" opacity="1.000000" stroke="none" 
	d="
M146.203522,778.040283 
	C146.421295,778.793884 146.370956,779.637207 146.093140,780.714661 
	C145.888901,780.009216 145.912155,779.069641 146.203522,778.040283 
z"/>
<path fill="#F2EEE5" opacity="1.000000" stroke="none" 
	d="
M160.234283,689.038330 
	C160.453629,689.798096 160.399323,690.643799 160.116333,691.722412 
	C159.911987,691.011719 159.936310,690.067932 160.234283,689.038330 
z"/>
<path fill="#F2EEE5" opacity="1.000000" stroke="none" 
	d="
M148.253540,765.037354 
	C148.472717,765.799622 148.415421,766.646179 148.129608,767.725830 
	C147.926422,767.013184 147.951736,766.067444 148.253540,765.037354 
z"/>
<path fill="#F2EEE5" opacity="1.000000" stroke="none" 
	d="
M149.200165,759.040588 
	C149.417618,759.794434 149.367661,760.638184 149.088867,761.715088 
	C148.884262,761.008911 148.908508,760.069763 149.200165,759.040588 
z"/>
<path fill="#F2EEE5" opacity="1.000000" stroke="none" 
	d="
M150.304108,752.037598 
	C150.522842,752.806946 150.458237,753.655945 150.163177,754.736328 
	C149.962067,754.017578 149.991394,753.067444 150.304108,752.037598 
z"/>
<path fill="#F2EEE5" opacity="1.000000" stroke="none" 
	d="
M151.250381,746.037354 
	C151.468002,746.800049 151.410095,747.647156 151.120728,748.725098 
	C150.917801,748.011169 150.946320,747.066467 151.250381,746.037354 
z"/>
<path fill="#F2EEE5" opacity="1.000000" stroke="none" 
	d="
M152.196442,740.040894 
	C152.413971,740.793579 152.364639,741.636841 152.087723,742.713928 
	C151.883270,742.008972 151.906403,741.070190 152.196442,740.040894 
z"/>
<path fill="#F2EEE5" opacity="1.000000" stroke="none" 
	d="
M153.298203,733.037964 
	C153.516434,733.806519 153.452255,734.655151 153.157440,735.735107 
	C152.956451,735.016968 152.986130,734.067566 153.298203,733.037964 
z"/>
<path fill="#F2EEE5" opacity="1.000000" stroke="none" 
	d="
M154.254745,727.037537 
	C154.469879,727.799988 154.409119,728.646301 154.117935,729.723633 
	C153.917953,729.010315 153.948410,728.065796 154.254745,727.037537 
z"/>
<path fill="#F2EEE5" opacity="1.000000" stroke="none" 
	d="
M155.187744,721.041443 
	C155.405853,721.792847 155.358398,722.635315 155.084015,723.712097 
	C154.878799,723.008423 154.900497,722.070496 155.187744,721.041443 
z"/>
<path fill="#F2EEE5" opacity="1.000000" stroke="none" 
	d="
M156.288300,714.038391 
	C156.509628,714.805359 156.449692,715.654053 156.159821,716.734741 
	C155.955612,716.017822 155.981323,715.068970 156.288300,714.038391 
z"/>
<path fill="#F2EEE5" opacity="1.000000" stroke="none" 
	d="
M125.248215,911.038208 
	C125.465248,911.799866 125.407158,912.645935 125.118835,913.723450 
	C124.916771,913.010803 124.944939,912.066772 125.248215,911.038208 
z"/>
<path fill="#F2EEE5" opacity="1.000000" stroke="none" 
	d="
M157.241714,708.038452 
	C157.458939,708.798950 157.401901,709.644531 157.115662,710.722290 
	C156.913437,710.010864 156.940445,709.067200 157.241714,708.038452 
z"/>
<path fill="#F2EEE5" opacity="1.000000" stroke="none" 
	d="
M130.283707,879.038391 
	C130.504715,879.804932 130.444870,880.652771 130.155731,881.732666 
	C129.951904,881.016418 129.977386,880.068054 130.283707,879.038391 
z"/>
<path fill="#F2EEE5" opacity="1.000000" stroke="none" 
	d="
M159.290405,695.038452 
	C159.509232,695.805359 159.446716,696.653320 159.154663,697.733276 
	C158.953094,697.016724 158.981064,696.068115 159.290405,695.038452 
z"/>
<path fill="#F2EEE5" opacity="1.000000" stroke="none" 
	d="
M238.261383,193.038071 
	C238.478134,193.801056 238.417801,194.647308 238.128143,195.725922 
	C237.927322,195.012634 237.955826,194.066971 238.261383,193.038071 
z"/>
<path fill="#F2EEE5" opacity="1.000000" stroke="none" 
	d="
M246.295471,142.038879 
	C246.514999,142.806595 246.452377,143.654861 246.159821,144.734955 
	C245.957703,144.017654 245.985504,143.068527 246.295471,142.038879 
z"/>
<path fill="#F2EEE5" opacity="1.000000" stroke="none" 
	d="
M245.186203,149.040771 
	C245.406128,149.792419 245.360687,150.635956 245.087494,151.713562 
	C244.880127,151.009293 244.900482,150.070969 245.186203,149.040771 
z"/>
<path fill="#F2EEE5" opacity="1.000000" stroke="none" 
	d="
M244.251083,155.037964 
	C244.467743,155.799835 244.408859,156.645966 244.119659,157.723572 
	C243.918076,157.010757 243.946808,156.066483 244.251083,155.037964 
z"/>
<path fill="#F2EEE5" opacity="1.000000" stroke="none" 
	d="
M243.298050,161.038025 
	C243.517746,161.807022 243.454895,162.656296 243.160767,163.736603 
	C242.958160,163.017853 242.986847,162.068069 243.298050,161.038025 
z"/>
<path fill="#F2EEE5" opacity="1.000000" stroke="none" 
	d="
M242.195236,168.040802 
	C242.414200,168.793243 242.366699,169.637299 242.091278,170.715057 
	C241.885178,170.009964 241.906967,169.071198 242.195236,168.040802 
z"/>
<path fill="#F2EEE5" opacity="1.000000" stroke="none" 
	d="
M241.254669,174.037384 
	C241.469772,174.800186 241.408951,175.646622 241.117081,176.723938 
	C240.916931,176.010223 240.947830,175.065598 241.254669,174.037384 
z"/>
<path fill="#F2EEE5" opacity="1.000000" stroke="none" 
	d="
M240.308151,180.037888 
	C240.528381,180.807861 240.464279,181.656845 240.170944,182.737976 
	C239.969070,182.019043 239.996445,181.067978 240.308151,180.037888 
z"/>
<path fill="#F2EEE5" opacity="1.000000" stroke="none" 
	d="
M239.199158,187.040237 
	C239.417938,187.793503 239.369247,188.637253 239.093430,189.715317 
	C238.888107,189.009995 238.909912,188.070358 239.199158,187.040237 
z"/>
<path fill="#F2EEE5" opacity="1.000000" stroke="none" 
	d="
M247.248322,136.038025 
	C247.464035,136.799133 247.404694,137.644730 247.115936,138.722412 
	C246.915421,138.010513 246.944351,137.066498 247.248322,136.038025 
z"/>
<path fill="#F2EEE5" opacity="1.000000" stroke="none" 
	d="
M237.311615,199.037949 
	C237.531097,199.808075 237.465912,200.657104 237.171600,201.738403 
	C236.970627,201.019394 236.998779,200.068130 237.311615,199.037949 
z"/>
<path fill="#F2EEE5" opacity="1.000000" stroke="none" 
	d="
M236.202759,206.039993 
	C236.421112,206.793213 236.371353,207.636536 236.094818,208.714478 
	C235.890259,208.009445 235.912460,207.069763 236.202759,206.039993 
z"/>
<path fill="#F2EEE5" opacity="1.000000" stroke="none" 
	d="
M235.264313,212.038635 
	C235.483688,212.802612 235.425247,213.649597 235.136932,214.728302 
	C234.933548,214.013901 234.960022,213.067795 235.264313,212.038635 
z"/>
<path fill="#F2EEE5" opacity="1.000000" stroke="none" 
	d="
M234.318634,218.037476 
	C234.538071,218.809036 234.471832,219.658676 234.175262,220.739716 
	C233.974258,220.019257 234.003616,219.067413 234.318634,218.037476 
z"/>
<path fill="#F2EEE5" opacity="1.000000" stroke="none" 
	d="
M233.215851,225.039093 
	C233.432297,225.794632 233.378540,226.638504 233.097183,227.716187 
	C232.894943,227.009155 232.920303,226.068283 233.215851,225.039093 
z"/>
<path fill="#F2EEE5" opacity="1.000000" stroke="none" 
	d="
M232.268585,231.038788 
	C232.485901,231.803528 232.425049,232.650604 232.133026,233.728363 
	C231.931366,233.013077 231.960892,232.067108 232.268585,231.038788 
z"/>
<path fill="#F2EEE5" opacity="1.000000" stroke="none" 
	d="
M230.220062,244.039093 
	C230.438324,244.795914 230.385757,245.640976 230.104523,246.718796 
	C229.900330,246.010147 229.924789,245.068741 230.220062,244.039093 
z"/>
<path fill="#F2EEE5" opacity="1.000000" stroke="none" 
	d="
M229.274994,250.038788 
	C229.491058,250.804688 229.428543,251.652634 229.132919,252.729767 
	C228.932007,252.012894 228.964203,251.066864 229.274994,250.038788 
z"/>
<path fill="#F2EEE5" opacity="1.000000" stroke="none" 
	d="
M258.273254,66.038208 
	C258.493713,66.803528 258.435059,67.651711 258.145691,68.731178 
	C257.941406,68.015335 257.967804,67.068192 258.273254,66.038208 
z"/>
<path fill="#F2EEE5" opacity="1.000000" stroke="none" 
	d="
M267.260681,9.037722 
	C267.479095,9.800970 267.420380,10.647894 267.132080,11.726998 
	C266.929504,11.013252 266.956543,10.067325 267.260681,9.037722 
z"/>
<path fill="#F2EEE5" opacity="1.000000" stroke="none" 
	d="
M266.311584,15.037989 
	C266.531586,15.808059 266.466858,16.657057 266.172729,17.738155 
	C265.971191,17.019142 265.999023,16.068029 266.311584,15.037989 
z"/>
<path fill="#F2EEE5" opacity="1.000000" stroke="none" 
	d="
M265.212158,22.039986 
	C265.429504,22.795021 265.377167,23.638639 265.097229,24.716133 
	C264.893890,24.009527 264.918213,23.069046 265.212158,22.039986 
z"/>
<path fill="#F2EEE5" opacity="1.000000" stroke="none" 
	d="
M264.268372,28.038898 
	C264.486603,28.803358 264.426483,29.650238 264.136383,30.728794 
	C263.934296,30.014084 263.962158,29.067703 264.268372,28.038898 
z"/>
<path fill="#F2EEE5" opacity="1.000000" stroke="none" 
	d="
M263.322266,34.037735 
	C263.540741,34.809700 263.473145,35.659157 263.175262,36.739868 
	C262.975372,36.019157 263.005768,35.067192 263.322266,34.037735 
z"/>
<path fill="#F2EEE5" opacity="1.000000" stroke="none" 
	d="
M262.214233,41.038139 
	C262.433228,41.794075 262.381989,42.638794 262.103149,43.717678 
	C261.898376,43.010204 261.921204,42.068562 262.214233,41.038139 
z"/>
<path fill="#F2EEE5" opacity="1.000000" stroke="none" 
	d="
M261.270691,47.038231 
	C261.488983,47.803688 261.428802,48.651550 261.136353,49.729424 
	C260.933472,49.013172 260.962860,48.066902 261.270691,47.038231 
z"/>
<path fill="#F2EEE5" opacity="1.000000" stroke="none" 
	d="
M259.227356,60.037994 
	C259.442017,60.795753 259.385010,61.640549 259.098999,62.717758 
	C258.898529,62.008461 258.927094,61.066746 259.227356,60.037994 
z"/>
<path fill="#F2EEE5" opacity="1.000000" stroke="none" 
	d="
M186.248230,523.038208 
	C186.465286,523.799805 186.407211,524.645996 186.118866,525.723511 
	C185.916779,525.010803 185.944931,524.066772 186.248230,523.038208 
z"/>
<path fill="#F2EEE5" opacity="1.000000" stroke="none" 
	d="
M257.159180,73.042343 
	C257.379395,73.790039 257.338806,74.632324 257.070709,75.708893 
	C256.861572,75.007774 256.879974,74.072350 257.159180,73.042343 
z"/>
<path fill="#F2EEE5" opacity="1.000000" stroke="none" 
	d="
M256.229706,79.037422 
	C256.445099,79.796104 256.388489,80.641830 256.101379,81.719292 
	C255.899826,81.008835 255.928772,80.066658 256.229706,79.037422 
z"/>
<path fill="#F2EEE5" opacity="1.000000" stroke="none" 
	d="
M255.276672,85.037842 
	C255.497437,85.804329 255.438660,86.653191 255.148010,87.732437 
	C254.943130,87.015289 254.970139,86.067757 255.276672,85.037842 
z"/>
<path fill="#F2EEE5" opacity="1.000000" stroke="none" 
	d="
M253.233429,98.038223 
	C253.450684,98.797264 253.394943,99.642677 253.109772,100.720627 
	C252.907043,100.010315 252.933746,99.067459 253.233429,98.038223 
z"/>
<path fill="#F2EEE5" opacity="1.000000" stroke="none" 
	d="
M252.283707,104.038429 
	C252.504700,104.804939 252.444855,105.652802 252.155701,106.732681 
	C251.951889,106.016396 251.977386,105.068092 252.283707,104.038429 
z"/>
<path fill="#F2EEE5" opacity="1.000000" stroke="none" 
	d="
M250.241760,117.038574 
	C250.457916,117.798393 250.399857,118.643410 250.113525,119.721481 
	C249.912689,119.010948 249.940125,118.067360 250.241760,117.038574 
z"/>
<path fill="#F2EEE5" opacity="1.000000" stroke="none" 
	d="
M249.289795,123.038589 
	C249.509216,123.805267 249.447296,124.653145 249.156281,125.733398 
	C248.954285,125.017105 248.981369,124.068451 249.289795,123.038589 
z"/>
<path fill="#F2EEE5" opacity="1.000000" stroke="none" 
	d="
M198.227341,447.038025 
	C198.442001,447.795807 198.384995,448.640564 198.098969,449.717712 
	C197.898529,449.008392 197.927109,448.066711 198.227341,447.038025 
z"/>
<path fill="#F2EEE5" opacity="1.000000" stroke="none" 
	d="
M207.203491,390.040314 
	C207.421097,390.793884 207.370560,391.637207 207.092850,392.714661 
	C206.888901,392.009216 206.912125,391.069641 207.203491,390.040314 
z"/>
<path fill="#F2EEE5" opacity="1.000000" stroke="none" 
	d="
M206.268158,396.038086 
	C206.484711,396.802155 206.423157,397.648712 206.132050,398.727173 
	C205.931671,398.012909 205.960876,397.066742 206.268158,396.038086 
z"/>
<path fill="#F2EEE5" opacity="1.000000" stroke="none" 
	d="
M205.316772,402.038147 
	C205.535400,402.808777 205.468735,403.657623 205.172729,404.738342 
	C204.972748,404.018951 205.002106,403.067627 205.316772,402.038147 
z"/>
<path fill="#F2EEE5" opacity="1.000000" stroke="none" 
	d="
M204.211578,409.039520 
	C204.429047,409.794495 204.376968,410.638336 204.097229,411.716064 
	C203.893723,411.009460 203.917877,410.068909 204.211578,409.039520 
z"/>
<path fill="#F2EEE5" opacity="1.000000" stroke="none" 
	d="
M203.268417,415.038940 
	C203.486633,415.803406 203.426514,416.650299 203.136414,417.728821 
	C202.934311,417.014069 202.962204,416.067719 203.268417,415.038940 
z"/>
<path fill="#F2EEE5" opacity="1.000000" stroke="none" 
	d="
M202.322235,421.037750 
	C202.540695,421.809723 202.473083,422.659180 202.175140,423.739868 
	C201.975266,423.019165 202.005707,422.067200 202.322235,421.037750 
z"/>
<path fill="#F2EEE5" opacity="1.000000" stroke="none" 
	d="
M201.215820,428.038330 
	C201.434189,428.794739 201.382065,429.639435 201.101929,430.717682 
	C200.897720,430.009705 200.921524,429.068146 201.215820,428.038330 
z"/>
<path fill="#F2EEE5" opacity="1.000000" stroke="none" 
	d="
M200.270584,434.038208 
	C200.488876,434.803589 200.428711,435.651489 200.136322,436.729370 
	C199.933426,436.013153 199.962784,435.066895 200.270584,434.038208 
z"/>
<path fill="#F2EEE5" opacity="1.000000" stroke="none" 
	d="
M227.227203,263.038208 
	C227.443741,263.796356 227.388474,264.641663 227.103455,265.718811 
	C226.900925,265.008911 226.928162,264.067108 227.227203,263.038208 
z"/>
<path fill="#F2EEE5" opacity="1.000000" stroke="none" 
	d="
M197.273254,453.038208 
	C197.493683,453.803558 197.435059,454.651733 197.145691,455.731232 
	C196.941360,455.015381 196.967773,454.068237 197.273254,453.038208 
z"/>
<path fill="#F2EEE5" opacity="1.000000" stroke="none" 
	d="
M196.159164,460.042358 
	C196.379715,460.789948 196.339401,461.632172 196.071899,462.708923 
	C195.862564,462.007965 195.880432,461.072479 196.159164,460.042358 
z"/>
<path fill="#F2EEE5" opacity="1.000000" stroke="none" 
	d="
M195.229691,466.037415 
	C195.445068,466.796112 195.388458,467.641876 195.101364,468.719360 
	C194.899826,468.008911 194.928757,467.066681 195.229691,466.037415 
z"/>
<path fill="#F2EEE5" opacity="1.000000" stroke="none" 
	d="
M194.276672,472.037842 
	C194.497421,472.804321 194.438644,473.653198 194.147995,474.732483 
	C193.943130,474.015320 193.970154,473.067780 194.276672,472.037842 
z"/>
<path fill="#F2EEE5" opacity="1.000000" stroke="none" 
	d="
M192.233444,485.038147 
	C192.450699,485.797180 192.394974,486.642609 192.109802,487.720642 
	C191.907059,487.010315 191.933762,486.067444 192.233444,485.038147 
z"/>
<path fill="#F2EEE5" opacity="1.000000" stroke="none" 
	d="
M189.241776,504.038574 
	C189.457932,504.798370 189.399872,505.643402 189.113541,506.721466 
	C188.912689,506.010956 188.940125,505.067383 189.241776,504.038574 
z"/>
<path fill="#F2EEE5" opacity="1.000000" stroke="none" 
	d="
M188.289764,510.038574 
	C188.509293,510.805237 188.447433,511.653137 188.156662,512.733521 
	C187.954620,512.017334 187.981506,511.068573 188.289764,510.038574 
z"/>
<path fill="#F2EEE5" opacity="1.000000" stroke="none" 
	d="
M185.295578,529.038757 
	C185.514771,529.806641 185.451889,530.655151 185.158722,531.735229 
	C184.956787,531.017700 184.985138,530.068542 185.295578,529.038757 
z"/>
<path fill="#F2EEE5" opacity="1.000000" stroke="none" 
	d="
M209.253525,377.037354 
	C209.472702,377.799652 209.415405,378.646210 209.129593,379.725922 
	C208.926407,379.013275 208.951721,378.067444 209.253525,377.037354 
z"/>
<path fill="#F2EEE5" opacity="1.000000" stroke="none" 
	d="
M228.154495,257.042603 
	C228.375580,257.788879 228.336426,258.630585 228.071945,259.708344 
	C227.862488,259.008972 227.878387,258.073486 228.154495,257.042603 
z"/>
<path fill="#F2EEE5" opacity="1.000000" stroke="none" 
	d="
M226.272766,269.037628 
	C226.494080,269.803802 226.436432,270.652924 226.146408,271.732239 
	C225.940643,271.015137 225.967239,270.067871 226.272766,269.037628 
z"/>
<path fill="#F2EEE5" opacity="1.000000" stroke="none" 
	d="
M224.237427,282.037781 
	C224.451355,282.797241 224.392166,283.642487 224.103119,284.719696 
	C223.903580,284.008972 223.933929,283.066284 224.237427,282.037781 
z"/>
<path fill="#F2EEE5" opacity="1.000000" stroke="none" 
	d="
M223.280457,288.038330 
	C223.502625,288.804321 223.444290,289.652313 223.157211,290.732910 
	C222.952301,290.017120 222.976120,289.068726 223.280457,288.038330 
z"/>
<path fill="#F2EEE5" opacity="1.000000" stroke="none" 
	d="
M221.234222,301.038391 
	C221.453796,301.798279 221.399719,302.643951 221.116852,303.722473 
	C220.912231,303.011597 220.936401,302.067932 221.234222,301.038391 
z"/>
<path fill="#F2EEE5" opacity="1.000000" stroke="none" 
	d="
M220.290436,307.038452 
	C220.509216,307.805359 220.446686,308.653320 220.154633,309.733368 
	C219.953110,309.016785 219.981110,308.068176 220.290436,307.038452 
z"/>
<path fill="#F2EEE5" opacity="1.000000" stroke="none" 
	d="
M218.241730,320.038391 
	C218.458969,320.798889 218.401917,321.644470 218.115662,322.722260 
	C217.913437,322.010803 217.940445,321.067169 218.241730,320.038391 
z"/>
<path fill="#F2EEE5" opacity="1.000000" stroke="none" 
	d="
M217.288376,326.038361 
	C217.509216,326.805481 217.448883,327.654205 217.158142,328.734680 
	C216.954239,328.017609 216.980713,327.068817 217.288376,326.038361 
z"/>
<path fill="#F2EEE5" opacity="1.000000" stroke="none" 
	d="
M216.187927,333.041290 
	C216.405609,333.792847 216.357864,334.635559 216.082428,335.711945 
	C215.877319,335.007904 215.899902,334.070160 216.187927,333.041290 
z"/>
<path fill="#F2EEE5" opacity="1.000000" stroke="none" 
	d="
M215.255310,339.038025 
	C215.470306,339.800537 215.409317,340.646576 215.117905,341.723633 
	C214.918106,341.010284 214.948730,340.065918 215.255310,339.038025 
z"/>
<path fill="#F2EEE5" opacity="1.000000" stroke="none" 
	d="
M214.298187,345.037994 
	C214.516434,345.806458 214.452255,346.655151 214.157425,347.735138 
	C213.956436,347.017029 213.986099,346.067627 214.298187,345.037994 
z"/>
<path fill="#F2EEE5" opacity="1.000000" stroke="none" 
	d="
M213.196381,352.040894 
	C213.413940,352.793671 213.364609,353.636841 213.087708,354.713928 
	C212.883255,354.009003 212.906357,353.070160 213.196381,352.040894 
z"/>
<path fill="#F2EEE5" opacity="1.000000" stroke="none" 
	d="
M212.250458,358.037262 
	C212.466751,358.799469 212.407593,359.646027 212.117798,360.724060 
	C211.916428,360.010925 211.945709,359.066254 212.250458,358.037262 
z"/>
<path fill="#F2EEE5" opacity="1.000000" stroke="none" 
	d="
M211.304077,364.037598 
	C211.522842,364.806976 211.458206,365.655945 211.163147,366.736389 
	C210.962051,366.017670 210.991364,365.067413 211.304077,364.037598 
z"/>
<path fill="#F2EEE5" opacity="1.000000" stroke="none" 
	d="
M210.200134,371.040619 
	C210.418076,371.794281 210.368591,372.638031 210.090454,373.714813 
	C209.885437,373.008820 209.909073,372.069733 210.200134,371.040619 
z"/>
<path fill="#F2EEE5" opacity="1.000000" stroke="none" 
	d="
M147.164978,772.021606 
	C147.387085,772.490540 147.377106,773.036377 147.154205,773.776611 
	C146.938477,773.346802 146.935669,772.722656 147.164978,772.021606 
z"/>
<path fill="#F2EEE5" opacity="1.000000" stroke="none" 
	d="
M117.640282,988.207275 
	C118.085464,988.545776 118.338303,989.031372 118.490814,989.787231 
	C118.076317,989.489807 117.762131,988.921997 117.640282,988.207275 
z"/>
<path fill="#F2EEE5" opacity="1.000000" stroke="none" 
	d="
M118.754959,993.165649 
	C119.221741,993.508728 119.473526,993.996704 119.650795,994.764404 
	C119.230843,994.466248 118.885406,993.888489 118.754959,993.165649 
z"/>
<path fill="#F2EEE5" opacity="1.000000" stroke="none" 
	d="
M208.164902,384.021637 
	C208.387070,384.490631 208.377106,385.036469 208.154205,385.776642 
	C207.938446,385.346832 207.935608,384.722626 208.164902,384.021637 
z"/>
</svg>