<svg width="32" height="32" viewBox="0 0 32 32" fill="none" xmlns="http://www.w3.org/2000/svg">
<path d="M14.6374 8.02948L9.33344 13.3334L18.6668 22.6668L23.9707 17.3628C27.3361 13.9974 28.8691 9.21391 28.0867 4.51929C28.0349 4.20872 27.7915 3.96536 27.481 3.91359C22.7863 3.13115 18.0028 4.66408 14.6374 8.02948Z" fill="#0070E0"/>
<path d="M9.33344 13.3334H5.37142C4.86527 13.3334 4.61179 12.7215 4.96969 12.3636L9.33325 8.00006C10.806 6.52733 13.1938 6.52733 14.6665 8.00007L9.33344 13.3334Z" fill="#003087"/>
<path d="M13.9999 14.6668C15.8408 14.6668 17.3332 16.1592 17.3332 18.0001C17.3332 19.8411 15.8408 21.3334 13.9999 21.3334H10.9068C10.7741 21.3334 10.6665 21.2259 10.6665 21.0932L10.6665 18.0001C10.6665 16.1592 12.1589 14.6668 13.9999 14.6668Z" fill="#003087"/>
<path d="M18.6665 26.6286L18.6668 22.6668L23.9999 17.3335C25.4727 18.8062 25.4727 21.194 23.9999 22.6667L19.6364 27.0303C19.2785 27.3882 18.6665 27.1347 18.6665 26.6286Z" fill="#003087"/>
<path d="M22 13.3333C23.841 13.3333 25.3333 11.8409 25.3333 10C25.3333 8.15905 23.841 6.66667 22 6.66667C20.1591 6.66667 18.6667 8.15905 18.6667 10C18.6667 11.8409 20.1591 13.3333 22 13.3333Z" fill="#FAF8F5"/>
<path d="M17.3332 18.0001C17.3332 18.9206 16.9602 19.7538 16.357 20.357L11.6429 15.643C12.2461 15.0398 13.0794 14.6668 13.9999 14.6668C15.8408 14.6668 17.3332 16.1592 17.3332 18.0001Z" fill="#FAF8F5"/>
</svg>
