<svg width="32" height="32" viewBox="0 0 32 32" fill="none" xmlns="http://www.w3.org/2000/svg">
<path d="M1.33334 7.99996C1.33334 7.26358 1.9303 6.66663 2.66668 6.66663H20C20.7364 6.66663 21.3333 7.26358 21.3333 7.99996V18.6666C21.3333 19.403 20.7364 20 20 20H2.66668C1.9303 20 1.33334 19.403 1.33334 18.6666V7.99996Z" fill="#003087"/>
<path d="M4.33334 9.33329C4.14925 9.33329 4.00001 9.48253 4.00001 9.66663V13C4.00001 13.1841 4.14925 13.3333 4.33334 13.3333H7.66668C7.85077 13.3333 8.00001 13.1841 8.00001 13V9.66663C8.00001 9.48253 7.85077 9.33329 7.66668 9.33329H4.33334Z" fill="#0070E0"/>
<path d="M12 12C11.2636 12 10.6667 12.5969 10.6667 13.3333V24C10.6667 24.7363 11.2636 25.3333 12 25.3333H29.3333C30.0697 25.3333 30.6667 24.7363 30.6667 24V13.3333C30.6667 12.5969 30.0697 12 29.3333 12H12Z" fill="#0070E0"/>
<path d="M21.3333 12V18.6666C21.3333 19.403 20.7364 20 20 20H10.6667V13.3333C10.6667 12.5969 11.2636 12 12 12H21.3333Z" fill="#FAF8F5"/>
<path d="M18.4656 14.6588C18.5812 14.5155 18.5588 14.3056 18.4156 14.19L18.0265 13.876C17.8832 13.7604 17.6734 13.7828 17.5577 13.926L15.4116 16.585C15.292 16.7331 15.0729 16.7512 14.9307 16.6247L14.0244 15.8187C13.8869 15.6963 13.6762 15.7086 13.5538 15.8462L13.2215 16.2198C13.0992 16.3574 13.1115 16.5681 13.2491 16.6904L15.0698 18.3098C15.2121 18.4363 15.4312 18.4183 15.5508 18.2701L18.4656 14.6588Z" fill="#003087"/>
<path d="M21.3333 14.6666H30.6667V17.3333H21.3333V14.6666Z" fill="#003087"/>
<path d="M18.6667 22.8333C18.6667 23.0174 18.5174 23.1666 18.3333 23.1666H12.3333C12.1492 23.1666 12 23.0174 12 22.8333V22.3333C12 22.1492 12.1492 22 12.3333 22H18.3333C18.5174 22 18.6667 22.1492 18.6667 22.3333V22.8333Z" fill="#003087"/>
</svg>
