<svg width="32" height="32" viewBox="0 0 32 32" fill="none" xmlns="http://www.w3.org/2000/svg">
<path d="M15.0164 4.16958L4 14.3951V22.0001L28 21.8445V14.3951L16.8238 4.16337C16.3116 3.69447 15.5253 3.69717 15.0164 4.16958Z" fill="#0070E0"/>
<path d="M8 9.33333C8 8.59695 8.59695 8 9.33333 8H22.6667C23.403 8 24 8.59695 24 9.33333V24C24 24.7364 23.403 25.3333 22.6667 25.3333H9.33333C8.59695 25.3333 8 24.7364 8 24V9.33333Z" fill="#FAF8F5"/>
<path d="M20 12.25C20 12.4341 19.8508 12.5833 19.6667 12.5833H12.3333C12.1492 12.5833 12 12.4341 12 12.25V11.75C12 11.5659 12.1492 11.4167 12.3333 11.4167H19.6667C19.8508 11.4167 20 11.5659 20 11.75V12.25Z" fill="#003087"/>
<path d="M4 26.6667V14.6667L15.3525 20.9736C15.7552 21.1973 16.2448 21.1973 16.6475 20.9736L28 14.6667V26.6667C28 27.403 27.403 28 26.6667 28H5.33333C4.59695 28 4 27.403 4 26.6667Z" fill="#003087"/>
<path d="M19.6667 15.25C19.8508 15.25 20 15.1008 20 14.9167V14.4167C20 14.2326 19.8508 14.0833 19.6667 14.0833H12.3333C12.1492 14.0833 12 14.2326 12 14.4167V14.9167C12 15.1008 12.1492 15.25 12.3333 15.25H19.6667Z" fill="#003087"/>
</svg>
