<svg width="32" height="32" viewBox="0 0 32 32" fill="none" xmlns="http://www.w3.org/2000/svg">
<path d="M28 26.6667C28 27.403 27.403 28 26.6667 28L8 28C7.26362 28 6.66667 27.403 6.66667 26.6667L6.66667 8C6.66667 7.26362 7.26362 6.66667 8 6.66667L26.6667 6.66667C27.403 6.66667 28 7.26362 28 8L28 26.6667Z" fill="#0070E0"/>
<path d="M25.3333 24C25.3333 24.7364 24.7364 25.3333 24 25.3333L5.33333 25.3333C4.59695 25.3333 4 24.7364 4 24L4 5.33333C4 4.59695 4.59696 4 5.33334 4L24 4C24.7364 4 25.3333 4.59696 25.3333 5.33334L25.3333 24Z" fill="#003087"/>
<path d="M25.3333 6.66667V24C25.3333 24.7364 24.7364 25.3333 24 25.3333L6.66667 25.3333L6.66667 8C6.66667 7.26362 7.26362 6.66667 8 6.66667H25.3333Z" fill="#FAF8F5"/>
<path d="M14.8214 11.945C14.7555 12.0013 14.7117 12.0793 14.6982 12.165L13.4379 20.14H11.2184C11.1712 20.1402 11.1246 20.1298 11.0819 20.1096C11.0393 20.0895 11.0017 20.06 10.9718 20.0235C10.9419 19.9869 10.9206 19.9442 10.9093 19.8983C10.898 19.8525 10.8971 19.8047 10.9065 19.7584L12.4998 9.6674C12.5132 9.57759 12.5572 9.49521 12.6245 9.4343C12.6918 9.37338 12.7781 9.33772 12.8687 9.33338H16.697C18.3519 9.32497 19.7779 10.5122 19.7724 12.1177C19.3466 11.8977 18.7983 11.8581 18.2226 11.8581H15.058C14.9713 11.8579 14.8874 11.8887 14.8214 11.945Z" fill="#003087"/>
<path d="M14.8128 15.9019L15.2907 12.8739C15.317 12.7135 15.4065 12.5531 15.615 12.5531H18.2857C18.7935 12.5576 19.3286 12.6035 19.7249 12.8107C19.7226 12.9498 19.7125 13.0887 19.6944 13.2266C19.5788 13.9717 19.2009 14.6508 18.629 15.1414C18.0571 15.632 17.3288 15.9017 16.5756 15.9019H14.8128Z" fill="#003087"/>
<path d="M20.372 13.1761C20.3682 13.3077 20.3567 13.4389 20.3377 13.5692C20.0648 15.3118 18.5497 16.5977 16.7891 16.5977H15.0426C14.9483 16.5978 14.857 16.6315 14.7853 16.6929C14.7136 16.7542 14.6661 16.8392 14.6514 16.9325L13.8017 22.2946C13.7945 22.3406 13.7974 22.3875 13.81 22.4323C13.8227 22.4771 13.8449 22.5185 13.8751 22.5539C13.9053 22.5892 13.9428 22.6176 13.985 22.6371C14.0272 22.6565 14.0731 22.6666 14.1196 22.6666H15.9906C16.0836 22.6666 16.1737 22.6337 16.245 22.5739C16.3163 22.5141 16.3643 22.431 16.3806 22.3393L16.8435 19.4315C16.8571 19.3458 16.9008 19.2677 16.9668 19.2113C17.0327 19.155 17.1166 19.1241 17.2033 19.1242H18.3161C20.0768 19.1242 21.5918 17.838 21.8647 16.0956C22.0581 14.8587 21.4361 13.7332 20.372 13.1761Z" fill="#003087"/>
</svg>
