<svg width="32" height="32" viewBox="0 0 32 32" fill="none" xmlns="http://www.w3.org/2000/svg">
<path d="M6.66666 2.66671C6.66666 1.93033 7.26361 1.33337 7.99999 1.33337H21.3333C22.0697 1.33337 22.6667 1.93033 22.6667 2.66671V29.3334C22.6667 30.0698 22.0697 30.6667 21.3333 30.6667H7.99999C7.26361 30.6667 6.66666 30.0698 6.66666 29.3334V2.66671Z" fill="#0070E0"/>
<path d="M12 8.00004C12 7.26366 12.5969 6.66671 13.3333 6.66671H26.6667C27.403 6.66671 28 7.26366 28 8.00004V21.3334C28 22.0698 27.403 22.6667 26.6667 22.6667H13.3333C12.5969 22.6667 12 22.0698 12 21.3334V8.00004Z" fill="#003087"/>
<path d="M22.6667 6.66671V22.6667H13.3333C12.5969 22.6667 12 22.0698 12 21.3334V8.00004C12 7.26366 12.5969 6.66671 13.3333 6.66671H22.6667Z" fill="#FAF8F5"/>
<path d="M17.9166 17.6958V9.66671C17.9166 9.48261 17.7674 9.33337 17.5833 9.33337H17.0833C16.8992 9.33337 16.75 9.48261 16.75 9.66671V17.6958L15.3199 16.1763C15.1937 16.0423 14.9827 16.0359 14.8487 16.162L14.4846 16.5047C14.3505 16.6309 14.3441 16.8418 14.4703 16.9759L17.0906 19.7599C17.2222 19.8998 17.4444 19.8998 17.576 19.7599L20.1963 16.9759C20.3225 16.8418 20.3161 16.6309 20.182 16.5047L19.8179 16.162C19.6839 16.0359 19.4729 16.0423 19.3467 16.1763L17.9166 17.6958Z" fill="#003087"/>
<path d="M16.6667 27.3334C16.6667 28.4379 15.7712 29.3334 14.6667 29.3334C13.5621 29.3334 12.6667 28.4379 12.6667 27.3334C12.6667 26.2288 13.5621 25.3334 14.6667 25.3334C15.7712 25.3334 16.6667 26.2288 16.6667 27.3334Z" fill="#003087"/>
</svg>
