<svg xmlns="http://www.w3.org/2000/svg" width="96" height="96" fill="none"><path d="M84 80a4 4 0 0 1-4 4H24a4 4 0 0 1-4-4V24a4 4 0 0 1 4-4h56a4 4 0 0 1 4 4v56z" fill="#0070e0"/><path d="M76 72a4 4 0 0 1-4 4H16a4 4 0 0 1-4-4V16a4 4 0 0 1 4-4h56a4 4 0 0 1 4 4v56z" fill="#003087"/><path d="M76 20v52a4 4 0 0 1-4 4H20V24a4 4 0 0 1 4-4h52z" fill="#faf8f5"/><path d="M44.438 47.706l1.433-9.084c.079-.481.348-.962.973-.962h8.012c1.523.014 3.129.151 4.318.773a11.01 11.01 0 0 1-.091 1.248 9.49 9.49 0 0 1-3.196 5.744c-1.715 1.472-3.901 2.281-6.16 2.282h-5.288zm16.678-8.178a10.12 10.12 0 0 1-.103 1.179c-.819 5.228-5.364 9.086-10.646 9.086h-5.239a1.19 1.19 0 0 0-1.174 1.004l-2.549 16.086a.96.96 0 0 0 .025.413.98.98 0 0 0 .195.365.95.95 0 0 0 .33.249.97.97 0 0 0 .404.089h5.613a1.19 1.19 0 0 0 1.17-.982l1.389-8.723c.041-.257.172-.492.37-.661a1.09 1.09 0 0 1 .71-.261h3.338c5.282 0 9.827-3.858 10.646-9.086.58-3.711-1.286-7.087-4.478-8.759zm-17.022-3.033a1.09 1.09 0 0 1 1.079-.921h9.494c1.727 0 3.372.119 4.649.779.017-4.816-4.262-8.378-9.226-8.353H38.606c-.272.013-.531.12-.733.303s-.334.43-.374.699l-4.78 30.273a.96.96 0 0 0 .008.42c.034.138.098.266.188.376a.95.95 0 0 0 .33.258c.127.06.268.092.409.091h6.659l3.781-23.925z" fill="#003087"/></svg>