<svg xmlns="http://www.w3.org/2000/svg" width="96" height="96" fill="none"><path d="M20 8a4 4 0 0 1 4-4h40a4 4 0 0 1 4 4v80a4 4 0 0 1-4 4H24a4 4 0 0 1-4-4V8z" fill="#0070e0"/><path d="M36 24a4 4 0 0 1 4-4h40a4 4 0 0 1 4 4v40a4 4 0 0 1-4 4H40a4 4 0 0 1-4-4V24z" fill="#003087"/><path d="M68 20v48H40a4 4 0 0 1-4-4V24a4 4 0 0 1 4-4h28z" fill="#faf8f5"/><path d="M50 82a6 6 0 1 1-12 0 6 6 0 1 1 12 0zm.25-28.914V29a1 1 0 0 1 1-1h1.5a1 1 0 0 1 1 1v24.088l4.291-4.559a1 1 0 0 1 1.414-.043l1.092 1.028a1 1 0 0 1 .043 1.414l-7.861 8.352a1 1 0 0 1-1.456 0l-7.861-8.352a1 1 0 0 1 .043-1.414l1.092-1.028a1 1 0 0 1 1.414.043l4.289 4.557z" fill="#003087"/></svg>