<svg xmlns="http://www.w3.org/2000/svg" width="96" height="96" fill="none"><path d="M72 42c0 16.569-13.431 30-30 30S12 58.569 12 42s13.432-30 30-30 30 13.432 30 30z" fill="#003087"/><path d="M84 54c0 16.569-13.431 30-30 30S24 70.569 24 54s13.432-30 30-30 30 13.432 30 30z" fill="#0070e0"/><path d="M42 72c16.569 0 30-13.431 30-30 0-5.199-1.322-10.088-3.649-14.351C64.088 25.322 59.199 24 54 24c-16.568 0-30 13.432-30 30 0 5.199 1.322 10.088 3.649 14.351C31.912 70.678 36.802 72 42 72z" fill="#faf8f5"/><path d="M42.25 35v3.25H38a1 1 0 0 0-1 1v17.5a1 1 0 0 0 1 1h4.25V61a1 1 0 0 0 1 1h1.5a1 1 0 0 0 1-1v-3.25h4.5V61a1 1 0 0 0 1 1h1.5a1 1 0 0 0 1-1v-3.25h3.5a1 1 0 0 0 1-1V51.5a1 1 0 0 0-1-1h-1.5a1 1 0 0 0-1 1v1.75a1 1 0 0 1-1 1H41.5a1 1 0 0 1-1-1v-10.5a1 1 0 0 1 1-1h12.25a1 1 0 0 1 1 1V45a1 1 0 0 0 1 1h1.5a1 1 0 0 0 1-1v-5.75a1 1 0 0 0-1-1h-3.5V35a1 1 0 0 0-1-1h-1.5a1 1 0 0 0-1 1v3.25h-4.5V35a1 1 0 0 0-1-1h-1.5a1 1 0 0 0-1 1z" fill="#003087"/></svg>