<svg xmlns="http://www.w3.org/2000/svg" width="96" height="96" fill="none"><path d="M12 32a4 4 0 0 1 4-4h48a4 4 0 0 1 4 4v40a4 4 0 0 1-4 4H16a4 4 0 0 1-4-4V32z" fill="#0070e0"/><path d="M71.911 31.823a7.64 7.64 0 0 0-.6-1.966l-8.128-16.079a1.31 1.31 0 0 0-.122-.208 3.72 3.72 0 0 0-1.393-1.168 4.01 4.01 0 0 0-1.82-.403h-40.03c-.584 0-1.154.168-1.633.48a2.71 2.71 0 0 0-1.047 1.267c0 .239-8.551 16.048-8.573 16.287a7.49 7.49 0 0 0-.511 1.893c-.99 9.693 12.075 11.191 12.709 1.186.378 9.017 12.365 9.173 12.809 0 .322 9.09 12.42 9.256 12.82 0 .411 9.1 12.387 9.1 12.809 0 .678 10.244 13.932 8.435 12.72-1.3l-.011.01zM40 48a4 4 0 0 1 4-4h36a4 4 0 0 1 4 4v32a4 4 0 0 1-4 4H44a4 4 0 0 1-4-4V48z" fill="#003087"/><path d="M68 44v28a4 4 0 0 1-4 4H40V48a4 4 0 0 1 4-4h24z" fill="#faf8f5"/><path d="M57.276 58.51l-1.229-.374.961-.585c.714-.42 1.319-1.003 1.764-1.7s.72-1.49.8-2.314a5.08 5.08 0 0 0-.473-2.633 5.09 5.09 0 0 0-1.745-2.029 5.1 5.1 0 0 0-2.535-.865c-.907-.057-1.813.129-2.624.538a5.09 5.09 0 0 0-1.988 1.793 5.08 5.08 0 0 0-.197 5.157 5.09 5.09 0 0 0 1.846 1.939l1.091.666-1.213.366a9.51 9.51 0 0 0-4.866 3.43A9.48 9.48 0 0 0 45 67.547v2.487c0 .522.208 1.022.577 1.391A1.97 1.97 0 0 0 46.97 72h15.052a1.97 1.97 0 0 0 1.398-.573c.184-.183.33-.4.429-.639s.151-.496.151-.754v-2.462c-.001-2.03-.654-4.006-1.865-5.638a9.49 9.49 0 0 0-4.859-3.423z" fill="#003087"/></svg>