<svg width="96" height="96" viewBox="0 0 96 96" fill="none" xmlns="http://www.w3.org/2000/svg">
<path d="M24.0005 69.999V47.999C24.0005 45.7899 25.7914 43.999 28.0005 43.999H68.0005C70.2097 43.999 72.0005 45.7899 72.0005 47.999V69.999C72.0005 75.5219 67.5234 79.999 62.0005 79.999H34.0005C28.4777 79.999 24.0005 75.5219 24.0005 69.999Z" fill="#0070E0"/>
<path fill-rule="evenodd" clip-rule="evenodd" d="M79.2502 64C78.698 64 78.2502 63.5523 78.2502 63V41C78.2502 40.4477 78.698 40 79.2502 40H80.7502C81.3025 40 81.7502 40.4477 81.7502 41V63C81.7502 63.5523 81.3025 64 80.7502 64H79.2502Z" fill="#0070E0"/>
<path d="M13.2217 38.3955L46.1073 17.3851C47.4281 16.5412 49.1201 16.5465 50.4356 17.3987L82.8705 38.4089C85.2906 39.9766 85.3073 43.5122 82.9021 45.1026L50.467 66.5507C49.1368 67.4303 47.4112 67.4358 46.0755 66.5646L13.1901 45.1166C10.7567 43.5296 10.7735 39.9596 13.2217 38.3955Z" fill="#003087"/>
<path d="M71.9999 52.3121L50.467 66.5507C49.1368 67.4303 47.4112 67.4358 46.0755 66.5646L23.9999 52.1672V44C23.9999 41.7909 25.7908 40 27.9999 40H67.9999C70.2091 40 71.9999 41.7909 71.9999 44V52.3121Z" fill="#FAF8F5"/>
</svg>
